<?xml version="1.0" encoding="UTF-8"?>
<svg version="1.1" xmlns="http://www.w3.org/2000/svg" width="603" height="414">
<path d="M0 0 C0.6749373 -0.00297112 1.3498746 -0.00594224 2.04526454 -0.0090034 C4.30588984 -0.01767184 6.56646207 -0.01919708 8.82710266 -0.02069092 C10.44853834 -0.02532047 12.06997293 -0.03034532 13.69140625 -0.03573608 C18.09659146 -0.04885044 22.50176143 -0.05530338 26.90696311 -0.05974674 C29.66091666 -0.06267954 32.41486606 -0.06678479 35.16881752 -0.07125092 C43.7902864 -0.08492445 52.41174579 -0.09459133 61.03322476 -0.09845281 C70.97583367 -0.10293076 80.91830491 -0.12046704 90.86087197 -0.1494534 C98.55190298 -0.17109493 106.24289532 -0.18115844 113.93395644 -0.18249393 C118.52459464 -0.18354035 123.1151034 -0.18941335 127.70570946 -0.20731354 C132.02724384 -0.22383658 136.3485521 -0.22592926 140.67010689 -0.21717453 C142.25147992 -0.21640637 143.83286532 -0.22071763 145.41420746 -0.23063278 C158.88211761 -0.31008807 168.95355532 1.66891158 179.22285461 10.88653564 C188.26058805 20.29595076 190.02169299 31.20389225 189.92451477 43.80645752 C189.93130794 45.23702602 189.94022053 46.66758575 189.95106506 48.09812927 C189.97366386 51.94749758 189.96510376 55.79618832 189.94916964 59.64556694 C189.93640879 63.69583686 189.94827876 67.7460532 189.95610046 71.79632568 C189.96516766 78.5948923 189.95328659 85.39318631 189.92939758 92.19171143 C189.90219176 100.02404266 189.91100802 107.85572287 189.93852961 115.68803835 C189.96130375 122.4426083 189.96438043 129.19698358 189.95133626 135.95157957 C189.94358711 139.97271597 189.94237369 143.99354753 189.95901871 148.0146637 C189.97358611 151.79730131 189.96322184 155.57910906 189.93454742 159.3616581 C189.92490749 161.39172384 189.93953141 163.42186075 189.95518494 165.45188904 C189.82683033 176.70441609 187.03543045 186.19948226 179.07051086 194.40216064 C178.18299133 195.26260986 178.18299133 195.26260986 177.27754211 196.14044189 C176.77867493 196.68313721 176.27980774 197.22583252 175.76582336 197.78497314 C165.6591975 207.84068402 150.07998263 208.30469978 136.68769836 208.27325439 C135.75008163 208.27466431 134.8124649 208.27607422 133.84643555 208.27752686 C130.67760197 208.27969516 127.5088661 208.27324053 124.34004211 208.26544189 C123.22979675 208.26389099 122.11955139 208.26234009 120.97566223 208.26074219 C111.40945967 208.24554395 101.843564 208.19824527 92.27754211 208.14044189 C90.95260365 208.13246582 90.95260365 208.13246582 89.60089874 208.12432861 C76.47613945 208.04399673 63.35166476 207.94205336 50.22721863 207.82104492 C46.10103985 207.78316303 41.97485885 207.74941006 37.84861755 207.71911621 C32.91566807 207.68243956 27.98289869 207.63602688 23.05010414 207.58250427 C21.21449044 207.56407044 19.37884133 207.54883945 17.54317284 207.5370636 C1.28732783 207.42865079 -12.09420001 206.60576644 -24.59745789 194.89044189 C-34.66864959 184.16949589 -34.87260247 173.34079366 -34.86772156 159.34576416 C-34.87071718 157.9488618 -34.87412063 156.55196027 -34.87789917 155.15505981 C-34.88670089 151.37612762 -34.88907562 147.5972181 -34.88971496 143.81827664 C-34.89042746 141.45410952 -34.89256554 139.0899481 -34.89521217 136.72578239 C-34.90445186 128.46906038 -34.90854865 120.21235446 -34.90776062 111.95562744 C-34.90715971 104.27290769 -34.91771764 96.59025811 -34.93350428 88.90755612 C-34.94659849 82.2984241 -34.95194375 75.68931498 -34.95130521 69.08017009 C-34.95105084 65.13853574 -34.95386842 61.19696385 -34.96448326 57.25534248 C-34.97419634 53.54774122 -34.97422153 49.84026177 -34.96696663 46.1326561 C-34.96543024 44.13276832 -34.97374443 42.13288047 -34.98240662 40.13301086 C-34.9388442 27.6276165 -32.64096172 19.15675174 -23.97245789 9.95294189 C-16.82330969 3.07459477 -9.83812318 0.02421075 0 0 Z M44.27754211 57.14044189 C44.27754211 87.83044189 44.27754211 118.52044189 44.27754211 150.14044189 C67.37754211 150.14044189 90.47754211 150.14044189 114.27754211 150.14044189 C114.27754211 119.45044189 114.27754211 88.76044189 114.27754211 57.14044189 C91.17754211 57.14044189 68.07754211 57.14044189 44.27754211 57.14044189 Z " fill="#F4F4F4" transform="translate(412.7224578857422,204.85955810546875)"/>
<path d="M0 0 C0.66933347 -0.00382555 1.33866694 -0.00765109 2.02828324 -0.01159257 C4.25202046 -0.02184101 6.47549553 -0.01794612 8.69924927 -0.01396179 C10.30142453 -0.01831281 11.90359771 -0.02349726 13.50576782 -0.02944946 C17.84468576 -0.04280921 22.18351643 -0.04342147 26.52245092 -0.04088616 C30.15054017 -0.03981433 33.77861191 -0.04470528 37.40669739 -0.04949158 C45.96939735 -0.06057645 54.53205343 -0.06103001 63.09475708 -0.05497742 C71.91470042 -0.04893864 80.7344842 -0.06124853 89.55440032 -0.08254749 C97.13934304 -0.10018753 104.72423508 -0.10616103 112.30919755 -0.10290974 C116.83382961 -0.10110047 121.35834786 -0.10369739 125.88296127 -0.11762428 C130.13970941 -0.13023706 134.39620959 -0.12822605 138.6529541 -0.11521339 C140.21013601 -0.11285551 141.76733556 -0.11555392 143.32449722 -0.12383652 C156.87897052 -0.19070284 166.93773666 1.93410168 177.1958313 11.26460266 C187.6080588 22.04318632 188.14337996 34.77298355 188.13796997 48.98213196 C188.14132858 50.25134995 188.14468719 51.52056793 188.14814758 52.82824707 C188.15694545 56.29547472 188.15932397 59.76267765 188.15996337 63.22991538 C188.16067649 65.40181275 188.16281581 67.57370392 188.16546059 69.74559975 C188.17470147 77.33909628 188.17879722 84.9325753 188.17800903 92.52607727 C188.17740922 99.57706277 188.18794531 106.62797152 188.2037527 113.67893761 C188.21688123 119.75395427 188.22219068 125.82894602 188.22155362 131.90397674 C188.22130011 135.5226889 188.22406937 139.14133286 188.23473167 142.76003075 C188.24632291 146.80416882 188.24163351 150.84813794 188.23562622 154.89228821 C188.24124573 156.07244507 188.24686523 157.25260193 188.25265503 158.46852112 C188.19781103 173.07420892 186.37950972 185.34552913 176.13723755 196.25288391 C165.37778974 206.32639243 153.20611683 207.38049731 139.16848755 207.61225891 C137.87404724 207.63604614 136.57960693 207.65983337 135.24594116 207.68434143 C130.93249321 207.76101294 126.61890242 207.82479365 122.3052063 207.88569641 C121.19526873 207.90160702 121.19526873 207.90160702 120.06290817 207.91783905 C94.42467201 208.27966228 68.78619324 208.36530954 43.14611816 208.17347717 C39.4363017 208.14607676 35.72669478 208.12964144 32.01678467 208.12281799 C27.60667543 208.11365099 23.19741884 208.07945755 18.78762054 208.02683258 C17.16798468 208.01118279 15.54824633 208.00353986 13.92853546 208.00493622 C0.91366327 208.00609926 -11.83038785 206.52135352 -21.5697937 196.94819641 C-22.30443848 196.22817444 -22.30443848 196.22817444 -23.05392456 195.49360657 C-32.15441423 186.33043925 -35.32072887 176.86262231 -35.42498779 164.07232666 C-35.42048615 162.7676796 -35.4159845 161.46303253 -35.41134644 160.11885071 C-35.41705885 158.70843468 -35.42402647 157.29802326 -35.43214417 155.88761902 C-35.44999758 152.07954905 -35.44892169 148.27171051 -35.44320178 144.46361136 C-35.44009762 141.27311277 -35.44621618 138.08265784 -35.45224053 134.89216548 C-35.46625937 127.35815207 -35.46474739 119.8242521 -35.45333862 112.29023743 C-35.44186835 104.54496995 -35.4559206 96.80004918 -35.4827351 89.05482739 C-35.50496624 82.38102825 -35.51151261 75.70733734 -35.50565869 69.03350383 C-35.50230455 65.05817757 -35.50460012 61.0830733 -35.52190971 57.10777855 C-35.53749498 53.36552875 -35.53329689 49.62378799 -35.51460457 45.88155746 C-35.50922289 43.87291394 -35.52334544 41.86424692 -35.53829956 39.85565186 C-35.44049182 27.68662635 -32.99139323 18.1901538 -24.3744812 9.38960266 C-17.11271385 2.85880529 -9.88572422 0.01703597 0 0 Z M43.9927063 57.26069641 C43.9927063 87.95069641 43.9927063 118.64069641 43.9927063 150.26069641 C66.1027063 150.26069641 88.2127063 150.26069641 110.9927063 150.26069641 C110.9927063 119.57069641 110.9927063 88.88069641 110.9927063 57.26069641 C88.8827063 57.26069641 66.7727063 57.26069641 43.9927063 57.26069641 Z " fill="#F4F4F4" transform="translate(177.00729370117188,204.7393035888672)"/>
<path d="M0 0 C1.59877991 -0.00503792 1.59877991 -0.00503792 3.2298584 -0.01017761 C6.74805879 -0.01966391 10.26621145 -0.02162972 13.78442383 -0.02270508 C16.23814412 -0.02591981 18.69186422 -0.02928405 21.14558411 -0.03279114 C26.28928064 -0.03877699 31.43296039 -0.04063165 36.57666016 -0.04003906 C43.14900957 -0.0399376 49.72125057 -0.05357626 56.29357433 -0.07081127 C61.36296579 -0.08196326 66.43233132 -0.08395727 71.50173378 -0.08342934 C73.92368251 -0.08460515 76.345632 -0.08900442 78.76756859 -0.0967617 C82.16543401 -0.10662395 85.56306788 -0.10365871 88.9609375 -0.09765625 C89.94989517 -0.10327576 90.93885284 -0.10889526 91.95777893 -0.11468506 C107.36212034 -0.04597827 121.03032055 3.44258053 132.39770508 14.11010742 C142.97809161 25.02606591 144.45686801 37.41444906 144.44921875 51.91259766 C144.45257736 52.84394531 144.45593597 53.77529297 144.45939636 54.73486328 C144.46882797 57.78704188 144.47084533 60.83916519 144.47192383 63.89135742 C144.47514112 66.02930218 144.47850554 68.16724673 144.48200989 70.30519104 C144.48798116 74.77605703 144.48985178 79.24690374 144.48925781 83.71777344 C144.48915614 89.42809044 144.50282232 95.13828325 144.52003002 100.84857082 C144.5311815 105.26081402 144.53317607 109.67302744 144.53264809 114.08528328 C144.53382291 116.1898752 144.53821657 118.29446802 144.54598045 120.39904594 C144.55584693 123.34896288 144.55287647 126.29861335 144.546875 129.24853516 C144.55249451 130.10546463 144.55811401 130.9623941 144.56390381 131.84529114 C144.49960665 144.36772144 141.33777085 156.20301779 132.55395508 165.52026367 C116.78215487 179.83391631 98.08640352 178.60007226 78.01879883 178.54370117 C75.46920183 178.54572589 72.91960541 178.54864064 70.37001038 178.55239868 C65.04706734 178.55680245 59.72428111 178.55074577 54.40136719 178.53637695 C48.28233427 178.52004789 42.16360133 178.52535315 36.04457563 178.54185617 C30.11146975 178.55720579 24.17845555 178.55546056 18.24533272 178.54671097 C15.74130777 178.54472191 13.23727507 178.54712228 10.7332592 178.55414963 C-8.9688152 178.59732435 -26.62690747 178.34457392 -41.91479492 164.12182617 C-51.00064924 154.03971589 -53.84061296 141.85208454 -53.85717773 128.68017578 C-53.86214264 127.73311768 -53.86710754 126.78605957 -53.8722229 125.81030273 C-53.88681084 122.68106351 -53.89364233 119.55187505 -53.89916992 116.42260742 C-53.90492587 114.23889668 -53.91068354 112.05518595 -53.91644287 109.87147522 C-53.92694448 105.29094203 -53.93279208 100.71042634 -53.9362793 96.12988281 C-53.94175025 90.28507619 -53.96575203 84.44050414 -53.99425125 78.59577084 C-54.01295918 74.08221278 -54.01808765 69.56871019 -54.01961517 65.05511665 C-54.02262583 62.90192958 -54.03060015 60.74874312 -54.04380035 58.59559441 C-54.14634589 40.57697816 -52.99467387 26.3045708 -40.69604492 12.14526367 C-28.78438506 2.58014114 -14.86485864 -0.00674276 0 0 Z M10.36645508 46.20776367 C5.1802123 53.59423066 4.86186004 62.06513072 4.94067383 70.82104492 C4.94017532 71.90806198 4.93967682 72.99507904 4.93916321 74.11503601 C4.94149054 76.40174193 4.95113917 78.68845106 4.96777344 80.97509766 C4.99131836 84.43765707 4.98832895 87.89944152 4.98168945 91.36206055 C3.85672718 111.53284296 3.85672718 111.53284296 11.30395508 129.14526367 C16.55814465 132.47507928 21.60766986 134.25193883 27.83789062 134.30639648 C28.72949387 134.31600403 29.62109711 134.32561157 30.53971863 134.33551025 C31.49703384 134.33976013 32.45434906 134.34401001 33.44067383 134.34838867 C34.43468704 134.35408875 35.42870026 134.35978882 36.45283508 134.36566162 C38.55676208 134.3751026 40.6607038 134.38164202 42.76464844 134.38549805 C45.96226286 134.39517532 49.15922657 134.42619597 52.35668945 134.45776367 C54.40551378 134.46429711 56.45434269 134.46954624 58.50317383 134.47338867 C59.92396492 134.49190887 59.92396492 134.49190887 61.37345886 134.51080322 C68.73414039 134.48645783 75.26913598 133.52033949 81.17895508 128.89526367 C87.00223497 121.3592544 86.74578941 114.43441747 86.70239258 105.18041992 C86.70441722 103.81953272 86.70733189 102.45864658 86.71109009 101.09776306 C86.71549666 98.25419726 86.70913774 95.41091543 86.69506836 92.56738281 C86.6779934 88.94169733 86.68781688 85.31667906 86.70578575 81.6910181 C86.71668306 78.88296075 86.71314994 76.0750587 86.70540237 73.26699638 C86.70245711 71.28631528 86.71149178 69.30562788 86.72079468 67.32496643 C86.66263334 59.83321057 86.47256168 53.30055031 81.76098633 47.12182617 C81.21829102 46.67581055 80.6755957 46.22979492 80.11645508 45.77026367 C79.58665039 45.3087793 79.0568457 44.84729492 78.51098633 44.37182617 C72.15107419 40.83729093 65.11054929 40.83740435 58.03051758 40.84448242 C57.06673187 40.8401973 56.10294617 40.83591217 55.10995483 40.83149719 C53.08120505 40.82578191 51.05243479 40.82523283 49.02368164 40.82958984 C45.94487007 40.83274735 42.86702302 40.80926345 39.78833008 40.78393555 C37.80656044 40.7816618 35.82478825 40.78095941 33.84301758 40.78198242 C32.9354068 40.77277267 32.02779602 40.76356293 31.09268188 40.7540741 C23.66360768 40.80699773 16.54718024 41.86810558 10.36645508 46.20776367 Z " fill="#BC92FD" transform="translate(456.696044921875,2.854736328125)"/>
<path d="M0 0 C0.93746567 -0.00426498 1.87493134 -0.00852997 2.84080505 -0.01292419 C3.87805725 -0.01247101 4.91530945 -0.01201782 5.98399353 -0.0115509 C7.07034592 -0.01490952 8.1566983 -0.01826813 9.27597046 -0.02172852 C12.8947207 -0.03128297 16.51342479 -0.03318478 20.13218689 -0.03425598 C22.64833597 -0.0374687 25.16448486 -0.04083279 27.68063354 -0.04434204 C32.97446703 -0.05034679 38.2682833 -0.05222363 43.56211853 -0.05158997 C49.64383319 -0.05099332 55.72545796 -0.06145804 61.80714995 -0.07733363 C67.68200081 -0.09211327 73.55681695 -0.09557432 79.43168449 -0.09498024 C81.91648662 -0.09615281 84.40128956 -0.10053349 86.88607979 -0.10831261 C113.47404029 -0.18366568 140.54530747 0.55095742 160.77110291 20.13566589 C162.08370085 21.45214389 163.37259219 22.79214014 164.65953064 24.13371277 C165.27312439 24.75117371 165.88671814 25.36863464 166.51890564 26.00480652 C183.2294914 43.96437935 186.5602423 71.51242922 185.94468689 94.91886902 C185.34787523 108.22602101 183.42221242 121.01730492 177.65953064 133.13371277 C177.2173822 134.08504089 176.77523376 135.03636902 176.31968689 136.01652527 C172.78002574 143.05662696 168.13023519 148.50904842 162.65953064 154.13371277 C161.87578064 154.99996277 161.09203064 155.86621277 160.28453064 156.75871277 C152.85600687 163.47975808 144.9659998 168.46044809 135.65953064 172.13371277 C134.46427261 172.61713135 133.26901459 173.10054993 132.03753662 173.59861755 C116.07475078 179.53876043 97.9769885 178.55329785 81.24156189 178.46183777 C78.76147578 178.45877234 76.28138794 178.45690219 73.80130005 178.4561615 C68.65216796 178.45159908 63.50319583 178.43731749 58.35411072 178.41496277 C51.74084405 178.38639929 45.12770108 178.37571861 38.51437855 178.37128067 C33.41624715 178.3671398 28.31814085 178.35733815 23.2200222 178.34540558 C20.77864978 178.33969978 18.33727495 178.3349421 15.89589882 178.33113861 C12.50952948 178.32430931 9.12326077 178.31070047 5.73692322 178.29484558 C4.21852341 178.29316879 4.21852341 178.29316879 2.66944885 178.29145813 C1.29716377 178.28289291 1.29716377 178.28289291 -0.10284424 178.27415466 C-1.30138676 178.26969267 -1.30138676 178.26969267 -2.52414227 178.26514053 C-4.34046936 178.13371277 -4.34046936 178.13371277 -5.34046936 177.13371277 C-5.439745 174.87043822 -5.46679378 172.60399746 -5.467453 170.33854675 C-5.46901299 169.61969268 -5.47057298 168.9008386 -5.47218025 168.16020107 C-5.47619274 165.73338249 -5.47299965 163.30662565 -5.46986389 160.87980652 C-5.47121782 159.14731306 -5.47299771 157.41481989 -5.47517395 155.68232727 C-5.47974926 150.96345444 -5.47795832 146.24460337 -5.47479486 141.52573013 C-5.47227177 136.59875172 -5.47460866 131.67177523 -5.47618103 126.74479675 C-5.47800287 118.46915857 -5.47559603 110.19352929 -5.47084045 101.91789246 C-5.46539781 92.33566416 -5.46716045 82.75345714 -5.47266686 73.17122936 C-5.47719757 64.95979473 -5.47784874 56.74836652 -5.47522819 48.53693104 C-5.47366518 43.62573714 -5.47347229 38.71455325 -5.47676468 33.80335999 C-5.47964279 29.18729018 -5.47766882 24.57124793 -5.47187042 19.95518112 C-5.4705425 18.25596538 -5.47093748 16.55674734 -5.47313309 14.8575325 C-5.47584334 12.54794941 -5.47246503 10.23845607 -5.467453 7.92887878 C-5.46707598 6.63321487 -5.46669895 5.33755096 -5.4663105 4.00262451 C-5.26985857 -0.47606389 -4.06341249 0.00831487 0 0 Z M55.65953064 43.13371277 C55.65953064 72.17371277 55.65953064 101.21371277 55.65953064 131.13371277 C87.11838589 133.00117557 87.11838589 133.00117557 115.90953064 122.94621277 C124.31023396 114.35458437 127.03453321 102.81927077 127.65953064 91.13371277 C127.7123822 90.45179871 127.76523376 89.76988464 127.81968689 89.06730652 C128.31392017 77.74291793 125.67253989 65.74311047 119.65953064 56.13371277 C119.10265564 55.22621277 118.54578064 54.31871277 117.97203064 53.38371277 C101.89209638 37.73837132 75.55045119 43.13371277 55.65953064 43.13371277 Z " fill="#BC92FD" transform="translate(206.34046936035156,2.8662872314453125)"/>
<path d="M0 0 C18.81 0 37.62 0 57 0 C57.87069773 3.4827909 58.12162895 5.96977897 58.11352539 9.50292969 C58.11344986 10.60376892 58.11337433 11.70460815 58.11329651 12.83880615 C58.10813522 14.02121887 58.10297394 15.20363159 58.09765625 16.421875 C58.0962413 17.63699768 58.09482635 18.85212036 58.09336853 20.10406494 C58.08776988 23.98606831 58.0752176 27.86801406 58.0625 31.75 C58.05748483 34.38150958 58.05292195 37.01302007 58.04882812 39.64453125 C58.03780089 46.09637383 58.02106408 52.5481828 58 59 C59.02904198 58.99666908 59.02904198 58.99666908 60.07887268 58.99327087 C67.2329964 58.9711102 74.38711033 58.95604839 81.54125977 58.94506836 C84.20957367 58.94061239 86.87783373 58.9332276 89.54614258 58.92456055 C93.38623736 58.91240156 97.22629569 58.90675026 101.06640625 58.90234375 C102.84961021 58.89460182 102.84961021 58.89460182 104.6688385 58.88670349 C110.22097445 58.88632928 115.53358856 58.99695689 121 60 C120.99777939 59.26306412 120.99555878 58.52612823 120.99327087 57.76686096 C120.97326797 50.83587231 120.95802587 43.90488796 120.94818783 36.97387791 C120.94296005 33.41022578 120.93586431 29.84659743 120.92456055 26.28295898 C120.91165824 22.18993903 120.90677094 18.0969442 120.90234375 14.00390625 C120.89718246 12.71851456 120.89202118 11.43312286 120.88670349 10.10877991 C120.88662796 8.92763107 120.88655243 7.74648224 120.88647461 6.52954102 C120.884254 5.48363297 120.88203339 4.43772491 120.87974548 3.36012268 C121 1 121 1 122 0 C123.80509373 -0.09899561 125.61406928 -0.12799151 127.421875 -0.12939453 C128.57977539 -0.13254669 129.73767578 -0.13569885 130.93066406 -0.13894653 C132.82123535 -0.13591019 132.82123535 -0.13591019 134.75 -0.1328125 C136.03358398 -0.13376923 137.31716797 -0.13472595 138.63964844 -0.13571167 C141.36003824 -0.13718831 144.08039525 -0.13503519 146.80078125 -0.13037109 C150.29484669 -0.12467381 153.78883533 -0.12795299 157.28289795 -0.13394356 C160.60527153 -0.13841754 163.92762423 -0.13528885 167.25 -0.1328125 C168.51038086 -0.13483673 169.77076172 -0.13686096 171.06933594 -0.13894653 C172.22723633 -0.13579437 173.38513672 -0.13264221 174.578125 -0.12939453 C175.60325195 -0.12859894 176.62837891 -0.12780334 177.68457031 -0.12698364 C180 0 180 0 181 1 C181.09709071 3.27823745 181.12186604 5.55955423 181.12025452 7.83985901 C181.12153615 8.9253238 181.12153615 8.9253238 181.12284368 10.03271717 C181.12450062 12.47569346 181.11897365 14.91860222 181.11352539 17.36157227 C181.11324354 19.10553994 181.11340121 20.84950774 181.1139679 22.59347534 C181.11425595 27.34327495 181.10835797 32.09304953 181.10139394 36.84284329 C181.09516169 41.80098422 181.0945567 46.75912566 181.09336853 51.7172699 C181.09025483 61.11309828 181.08204093 70.50891509 181.07201904 79.90473837 C181.06085909 90.59863149 181.05534775 101.29252516 181.05032361 111.98642266 C181.03985834 133.99095491 181.02225816 155.99547673 181 178 C173.32463373 178.02312821 165.64927104 178.04091753 157.97387791 178.05181217 C154.41022578 178.05703995 150.84659743 178.06413569 147.28295898 178.07543945 C143.18993903 178.08834176 139.0969442 178.09322906 135.00390625 178.09765625 C133.07581871 178.10539818 133.07581871 178.10539818 131.10877991 178.11329651 C129.33705666 178.11340981 129.33705666 178.11340981 127.52954102 178.11352539 C125.96067894 178.11685631 125.96067894 178.11685631 124.36012268 178.12025452 C122 178 122 178 121 177 C120.9057826 174.88318683 120.88257239 172.76319242 120.88647461 170.64428711 C120.88632858 169.98089828 120.88618256 169.31750946 120.8860321 168.63401794 C120.88673119 166.43176044 120.89452335 164.22958655 120.90234375 162.02734375 C120.90420794 160.50419664 120.90563184 158.98104893 120.90663147 157.457901 C120.91045654 153.44162349 120.92028672 149.42538192 120.93133545 145.40911865 C120.9433445 140.59420261 120.94795186 135.77927456 120.95378876 130.96434784 C120.96349849 123.64287353 120.98265509 116.32147815 121 109 C100.21 109.33 79.42 109.66 58 110 C58.01160156 114.65738281 58.02320313 119.31476563 58.03515625 124.11328125 C58.0402651 127.06185035 58.04507903 130.010414 58.04882812 132.95898438 C58.05480848 137.64022961 58.0618873 142.32145531 58.07543945 147.00268555 C58.08629584 150.77630515 58.09228269 154.54990381 58.09487724 158.32353783 C58.09672652 159.76405352 58.10033762 161.20456806 58.10573006 162.64507484 C58.11297686 164.6609142 58.11340837 166.67677458 58.11352539 168.69262695 C58.115746 169.84068314 58.11796661 170.98873932 58.12025452 172.17158508 C58 175 58 175 57 178 C38.19 178 19.38 178 0 178 C0 119.26 0 60.52 0 0 Z " fill="#D6D6D9" transform="translate(3,3)"/>
<path d="M0 0 C1.01797165 -0.00563965 2.0359433 -0.0112793 3.08476257 -0.01708984 C4.76642265 -0.01101715 4.76642265 -0.01101715 6.48205566 -0.00482178 C7.65931717 -0.00832642 8.83657867 -0.01183105 10.04951477 -0.01544189 C13.2829537 -0.02275038 16.51622965 -0.02101718 19.74966621 -0.01468372 C23.12933833 -0.00962941 26.50899935 -0.01431359 29.88867188 -0.01745605 C35.5648393 -0.02109737 41.24095472 -0.0162923 46.91711426 -0.0067749 C53.48480506 0.00411 60.0523717 0.00058453 66.62005949 -0.01042771 C72.25321629 -0.01949591 77.88633566 -0.02078817 83.51949739 -0.01555037 C86.88644732 -0.01242808 90.25333883 -0.01202838 93.62028503 -0.01862335 C97.37247216 -0.02367895 101.12441786 -0.01599177 104.87658691 -0.00482178 C105.99769363 -0.00887024 107.11880035 -0.0129187 108.27388 -0.01708984 C109.80083748 -0.00863037 109.80083748 -0.00863037 111.35864258 0 C112.69042416 0.00113108 112.69042416 0.00113108 114.04911041 0.002285 C116.17932129 0.25396729 116.17932129 0.25396729 118.17932129 2.25396729 C118.37697264 4.93256739 118.44856419 7.50787646 118.43328857 10.18768311 C118.43640856 11.01694195 118.43952854 11.8462008 118.44274306 12.7005887 C118.45075668 15.49514537 118.4443864 18.28948691 118.43811035 21.08404541 C118.44081872 23.08107125 118.44437878 25.07809609 118.44873047 27.07511902 C118.45787506 32.51093669 118.45430171 37.94667874 118.4479723 43.38249779 C118.44292299 49.06040024 118.44760076 54.73829604 118.45074463 60.41619873 C118.4543874 69.95279101 118.44957702 79.48935235 118.44006348 89.02593994 C118.42917834 100.06520266 118.4327037 111.10439151 118.44371629 122.14365244 C118.45278031 131.60692177 118.45407878 141.0701688 118.44883895 150.53344107 C118.44571437 156.19192815 118.44532325 161.85038048 118.45191193 167.50886536 C118.45767191 172.82756078 118.45371329 178.1461606 118.44212341 183.46484566 C118.43946959 185.42165022 118.44025414 187.37846278 118.44464874 189.33526421 C118.45007727 191.99703679 118.44330308 194.65849891 118.43328857 197.32025146 C118.43775002 198.10292405 118.44221146 198.88559663 118.4468081 199.69198656 C118.40762139 205.02566718 118.40762139 205.02566718 116.17932129 207.25396729 C113.75102068 207.45211913 111.4367811 207.52679996 109.00744629 207.51275635 C108.26909546 207.51626099 107.53074463 207.51976562 106.77001953 207.52337646 C104.32302521 207.53219778 101.87631868 207.52634333 99.42932129 207.51959229 C97.73303166 207.52093882 96.03674241 207.52287926 94.3404541 207.52539062 C90.78279959 207.52834243 87.2252454 207.52404248 83.66760254 207.51470947 C79.10080988 207.50331487 74.53425229 207.50987405 69.96746826 207.5218544 C66.46397115 207.52907151 62.96053002 207.52678577 59.45703125 207.52159882 C57.77286756 207.5202619 56.08869883 207.52191149 54.40454102 207.52655792 C52.05328855 207.53162076 49.70242006 207.52391661 47.35119629 207.51275635 C46.6508728 207.51680481 45.95054932 207.52085327 45.22900391 207.52502441 C40.40785044 207.48249644 40.40785044 207.48249644 38.17932129 205.25396729 C37.93322563 202.71211815 37.93322563 202.71211815 37.93881226 199.43276978 C37.93606293 198.1931398 37.9333136 196.95350983 37.93048096 195.67631531 C37.93755971 194.29513454 37.94482933 192.91395474 37.95227051 191.53277588 C37.95283441 190.08422351 37.95251848 188.63567057 37.9513855 187.18711853 C37.95081015 183.24723022 37.96259381 179.30746294 37.97653341 175.36760283 C37.98901051 171.25295845 37.99020888 167.1383115 37.99258423 163.02365112 C37.9988079 155.22863648 38.01523069 147.43367773 38.03528321 139.63868773 C38.05761465 130.76578295 38.06862869 121.89287555 38.07867408 113.01994967 C38.09959617 94.76459048 38.13478934 76.50928337 38.17932129 58.25396729 C36.88719727 58.26444092 35.59507324 58.27491455 34.26379395 58.28570557 C29.48175819 58.32183447 24.69973456 58.3448418 19.91760254 58.36383057 C17.84564182 58.3739044 15.77369536 58.38756394 13.70178223 58.40484619 C10.72811365 58.42903393 7.75463259 58.44043637 4.78088379 58.44927979 C3.38550888 58.46476364 3.38550888 58.46476364 1.96194458 58.4805603 C1.10120331 58.48071136 0.24046204 58.48086243 -0.6463623 58.48101807 C-1.40581146 58.48545929 -2.16526062 58.48990051 -2.94772339 58.49447632 C-4.82067871 58.25396729 -4.82067871 58.25396729 -6.82067871 56.25396729 C-7.074646 53.97686768 -7.074646 53.97686768 -7.07946777 51.10162354 C-7.08577209 50.02710938 -7.09207642 48.95259521 -7.09857178 47.84552002 C-7.09452332 46.68093262 -7.09047485 45.51634521 -7.08630371 44.31646729 C-7.08821716 43.1254541 -7.09013062 41.93444092 -7.09210205 40.70733643 C-7.09346501 38.185443 -7.08976087 35.6635426 -7.0814209 33.1416626 C-7.07072324 29.2700838 -7.08131277 25.39896906 -7.09411621 21.52740479 C-7.09279464 19.08209126 -7.09023229 16.63677802 -7.08630371 14.19146729 C-7.09035217 13.02687988 -7.09440063 11.86229248 -7.09857178 10.66241455 C-7.09226746 9.58790039 -7.08596313 8.51338623 -7.07946777 7.40631104 C-7.07787659 6.45748047 -7.0762854 5.5086499 -7.074646 4.53106689 C-6.56400045 -0.04743926 -3.95415731 0.00335825 0 0 Z " fill="#FFFFFF" transform="translate(7.8206787109375,204.74603271484375)"/>
<path d="M0 0 C1.01797165 -0.00563965 2.0359433 -0.0112793 3.08476257 -0.01708984 C4.76642265 -0.01101715 4.76642265 -0.01101715 6.48205566 -0.00482178 C7.65931717 -0.00832642 8.83657867 -0.01183105 10.04951477 -0.01544189 C13.2829537 -0.02275038 16.51622965 -0.02101718 19.74966621 -0.01468372 C23.12933833 -0.00962941 26.50899935 -0.01431359 29.88867188 -0.01745605 C35.5648393 -0.02109737 41.24095472 -0.0162923 46.91711426 -0.0067749 C53.48480506 0.00411 60.0523717 0.00058453 66.62005949 -0.01042771 C72.25321629 -0.01949591 77.88633566 -0.02078817 83.51949739 -0.01555037 C86.88644732 -0.01242808 90.25333883 -0.01202838 93.62028503 -0.01862335 C97.37247216 -0.02367895 101.12441786 -0.01599177 104.87658691 -0.00482178 C105.99769363 -0.00887024 107.11880035 -0.0129187 108.27388 -0.01708984 C109.80083748 -0.00863037 109.80083748 -0.00863037 111.35864258 0 C112.69042416 0.00113108 112.69042416 0.00113108 114.04911041 0.002285 C116.17932129 0.25396729 116.17932129 0.25396729 118.17932129 2.25396729 C118.37697264 4.93256739 118.44856419 7.50787646 118.43328857 10.18768311 C118.43640856 11.01694195 118.43952854 11.8462008 118.44274306 12.7005887 C118.45075668 15.49514537 118.4443864 18.28948691 118.43811035 21.08404541 C118.44081872 23.08107125 118.44437878 25.07809609 118.44873047 27.07511902 C118.45787506 32.51093669 118.45430171 37.94667874 118.4479723 43.38249779 C118.44292299 49.06040024 118.44760076 54.73829604 118.45074463 60.41619873 C118.4543874 69.95279101 118.44957702 79.48935235 118.44006348 89.02593994 C118.42917834 100.06520266 118.4327037 111.10439151 118.44371629 122.14365244 C118.45278031 131.60692177 118.45407878 141.0701688 118.44883895 150.53344107 C118.44571437 156.19192815 118.44532325 161.85038048 118.45191193 167.50886536 C118.45767191 172.82756078 118.45371329 178.1461606 118.44212341 183.46484566 C118.43946959 185.42165022 118.44025414 187.37846278 118.44464874 189.33526421 C118.45007727 191.99703679 118.44330308 194.65849891 118.43328857 197.32025146 C118.43775002 198.10292405 118.44221146 198.88559663 118.4468081 199.69198656 C118.40762139 205.02566718 118.40762139 205.02566718 116.17932129 207.25396729 C113.75102068 207.45211913 111.4367811 207.52679996 109.00744629 207.51275635 C108.26909546 207.51626099 107.53074463 207.51976562 106.77001953 207.52337646 C104.32302521 207.53219778 101.87631868 207.52634333 99.42932129 207.51959229 C97.73303166 207.52093882 96.03674241 207.52287926 94.3404541 207.52539062 C90.78279959 207.52834243 87.2252454 207.52404248 83.66760254 207.51470947 C79.10080988 207.50331487 74.53425229 207.50987405 69.96746826 207.5218544 C66.46397115 207.52907151 62.96053002 207.52678577 59.45703125 207.52159882 C57.77286756 207.5202619 56.08869883 207.52191149 54.40454102 207.52655792 C52.05328855 207.53162076 49.70242006 207.52391661 47.35119629 207.51275635 C46.6508728 207.51680481 45.95054932 207.52085327 45.22900391 207.52502441 C40.40785044 207.48249644 40.40785044 207.48249644 38.17932129 205.25396729 C37.93322563 202.71211815 37.93322563 202.71211815 37.93881226 199.43276978 C37.93606293 198.1931398 37.9333136 196.95350983 37.93048096 195.67631531 C37.93755971 194.29513454 37.94482933 192.91395474 37.95227051 191.53277588 C37.95283441 190.08422351 37.95251848 188.63567057 37.9513855 187.18711853 C37.95081015 183.24723022 37.96259381 179.30746294 37.97653341 175.36760283 C37.98901051 171.25295845 37.99020888 167.1383115 37.99258423 163.02365112 C37.9988079 155.22863648 38.01523069 147.43367773 38.03528321 139.63868773 C38.05761465 130.76578295 38.06862869 121.89287555 38.07867408 113.01994967 C38.09959617 94.76459048 38.13478934 76.50928337 38.17932129 58.25396729 C36.88719727 58.26444092 35.59507324 58.27491455 34.26379395 58.28570557 C29.48175819 58.32183447 24.69973456 58.3448418 19.91760254 58.36383057 C17.84564182 58.3739044 15.77369536 58.38756394 13.70178223 58.40484619 C10.72811365 58.42903393 7.75463259 58.44043637 4.78088379 58.44927979 C3.38550888 58.46476364 3.38550888 58.46476364 1.96194458 58.4805603 C1.10120331 58.48071136 0.24046204 58.48086243 -0.6463623 58.48101807 C-1.40581146 58.48545929 -2.16526062 58.48990051 -2.94772339 58.49447632 C-4.82067871 58.25396729 -4.82067871 58.25396729 -6.82067871 56.25396729 C-7.074646 53.97686768 -7.074646 53.97686768 -7.07946777 51.10162354 C-7.08577209 50.02710938 -7.09207642 48.95259521 -7.09857178 47.84552002 C-7.09452332 46.68093262 -7.09047485 45.51634521 -7.08630371 44.31646729 C-7.08821716 43.1254541 -7.09013062 41.93444092 -7.09210205 40.70733643 C-7.09346501 38.185443 -7.08976087 35.6635426 -7.0814209 33.1416626 C-7.07072324 29.2700838 -7.08131277 25.39896906 -7.09411621 21.52740479 C-7.09279464 19.08209126 -7.09023229 16.63677802 -7.08630371 14.19146729 C-7.09035217 13.02687988 -7.09440063 11.86229248 -7.09857178 10.66241455 C-7.09226746 9.58790039 -7.08596313 8.51338623 -7.07946777 7.40631104 C-7.07787659 6.45748047 -7.0762854 5.5086499 -7.074646 4.53106689 C-6.56400045 -0.04743926 -3.95415731 0.00335825 0 0 Z M-4.82067871 2.25396729 C-4.82067871 20.07396729 -4.82067871 37.89396729 -4.82067871 56.25396729 C10.02932129 56.25396729 24.87932129 56.25396729 40.17932129 56.25396729 C40.17932129 105.42396729 40.17932129 154.59396729 40.17932129 205.25396729 C65.25932129 205.25396729 90.33932129 205.25396729 116.17932129 205.25396729 C116.17932129 138.26396729 116.17932129 71.27396729 116.17932129 2.25396729 C76.24932129 2.25396729 36.31932129 2.25396729 -4.82067871 2.25396729 Z " fill="#000000" transform="translate(7.8206787109375,204.74603271484375)"/>
<path d="M0 0 C1.42137268 -0.00422974 1.42137268 -0.00422974 2.87145996 -0.00854492 C4.44383423 -0.00550858 4.44383423 -0.00550858 6.04797363 -0.00241089 C7.69436829 -0.00503937 7.69436829 -0.00503937 9.37402344 -0.00772095 C13.02642367 -0.01214513 16.67877598 -0.00919788 20.33117676 -0.00582886 C22.86409515 -0.00650212 25.39701347 -0.00747234 27.92993164 -0.00872803 C33.25313997 -0.01020608 38.576331 -0.00814339 43.89953613 -0.00338745 C50.0370316 0.00203301 56.17449373 0.00030907 62.31198835 -0.00521386 C68.22423546 -0.01031975 74.13647232 -0.00975153 80.04872131 -0.00683212 C82.55884302 -0.00616633 85.06896559 -0.0069791 87.5790863 -0.00931168 C91.09998794 -0.01186337 94.62082666 -0.00796113 98.14172363 -0.00241089 C99.1737793 -0.00443512 100.20583496 -0.00645935 101.26916504 -0.00854492 C107.13077997 0.00849253 112.79847055 0.37099674 118.61242676 1.12698364 C118.61242676 1.78698364 118.61242676 2.44698364 118.61242676 3.12698364 C58.22242676 2.63198364 58.22242676 2.63198364 -3.38757324 2.12698364 C-3.38757324 59.54698364 -3.38757324 116.96698364 -3.38757324 176.12698364 C32.91242676 176.12698364 69.21242676 176.12698364 106.61242676 176.12698364 C106.61242676 176.45698364 106.61242676 176.78698364 106.61242676 177.12698364 C69.65242676 177.12698364 32.69242676 177.12698364 -5.38757324 177.12698364 C-5.42787628 133.03098609 -5.42787628 133.03098609 -5.43640137 114.61331177 C-5.44234491 101.8747823 -5.44934809 89.13625943 -5.4630127 76.3977356 C-5.47295793 67.12211443 -5.47942629 57.84649859 -5.48166174 48.57087225 C-5.48296912 43.65630683 -5.48605669 38.74175666 -5.4933033 33.82719612 C-5.50006099 29.20704016 -5.50219072 24.58690581 -5.50068092 19.96674538 C-5.50095737 18.26591627 -5.50296397 16.56508648 -5.50677872 14.86426163 C-5.51171205 12.55244027 -5.51057288 10.24070183 -5.50782776 7.92887878 C-5.50874955 6.63191606 -5.50967134 5.33495333 -5.51062107 3.9986887 C-5.31768111 -0.50416742 -4.08246498 0.00185879 0 0 Z " fill="#A98CD9" transform="translate(206.3875732421875,2.873016357421875)"/>
<path d="M0 0 C24.42 0 48.84 0 74 0 C74 32.01 74 64.02 74 97 C49.58 97 25.16 97 0 97 C0 64.99 0 32.98 0 0 Z M2 2 C2 32.69 2 63.38 2 95 C25.1 95 48.2 95 72 95 C72 64.31 72 33.62 72 2 C48.9 2 25.8 2 2 2 Z " fill="#000000" transform="translate(455,260)"/>
<path d="M0 0 C23.43 0 46.86 0 71 0 C71 32.01 71 64.02 71 97 C47.57 97 24.14 97 0 97 C0 64.99 0 32.98 0 0 Z M2 2 C2 32.69 2 63.38 2 95 C24.11 95 46.22 95 69 95 C69 64.31 69 33.62 69 2 C46.89 2 24.78 2 2 2 Z " fill="#000000" transform="translate(219,260)"/>
<path d="M0 0 C7.54498233 -0.02312851 15.08996101 -0.04091769 22.63497066 -0.05181217 C26.13808885 -0.05703989 29.64118285 -0.0641355 33.14428711 -0.07543945 C37.16780841 -0.08834206 41.19130414 -0.09322912 45.21484375 -0.09765625 C46.47836166 -0.10281754 47.74187958 -0.10797882 49.04368591 -0.11329651 C50.204814 -0.11337204 51.36594208 -0.11344757 52.56225586 -0.11352539 C54.1044706 -0.11685631 54.1044706 -0.11685631 55.67784119 -0.12025452 C58 0 58 0 59 1 C59.09709071 3.27823745 59.12186604 5.55955423 59.12025452 7.83985901 C59.12110894 8.5635022 59.12196337 9.28714539 59.12284368 10.03271717 C59.12450062 12.47569346 59.11897365 14.91860222 59.11352539 17.36157227 C59.11324354 19.10553994 59.11340121 20.84950774 59.1139679 22.59347534 C59.11425595 27.34327495 59.10835797 32.09304953 59.10139394 36.84284329 C59.09516169 41.80098422 59.0945567 46.75912566 59.09336853 51.7172699 C59.09025483 61.11309828 59.08204093 70.50891509 59.07201904 79.90473837 C59.06085909 90.59863149 59.05534775 101.29252516 59.05032361 111.98642266 C59.03985834 133.99095634 59.02151239 155.99547415 59 178 C39.53 178 20.06 178 0 178 C0 177.34 0 176.68 0 176 C18.81 176 37.62 176 57 176 C57 118.58 57 61.16 57 2 C38.19 2 19.38 2 0 2 C0 1.34 0 0.68 0 0 Z " fill="#BFBEC2" transform="translate(125,3)"/>
<path d="M0 0 C7.53707979 -0.09309011 15.0740992 -0.16396136 22.61162472 -0.20724869 C26.11246632 -0.2280352 29.61291173 -0.25618599 33.11352539 -0.30175781 C37.14733466 -0.35393628 41.18073428 -0.37301886 45.21484375 -0.390625 C46.45894516 -0.41127014 47.70304657 -0.43191528 48.98484802 -0.45318604 C55.9576173 -0.4549705 62.12298786 -0.09364887 68 4 C75.22588751 12.48946119 75.30041243 21.77808905 75.265625 32.44921875 C75.26753845 33.73939407 75.2694519 35.0295694 75.27142334 36.35884094 C75.27435875 39.07789954 75.27012619 41.796826 75.26074219 44.51586914 C75.24931422 47.99609406 75.255938 51.47601158 75.26788712 54.9562254 C75.2768562 58.28724777 75.27057625 61.61818765 75.265625 64.94921875 C75.26967346 66.19716721 75.27372192 67.44511566 75.27789307 68.73088074 C75.26843658 70.46837334 75.26843658 70.46837334 75.25878906 72.2409668 C75.25719788 73.25909958 75.25560669 74.27723236 75.25396729 75.32621765 C74.99650935 78.03674972 74.38928409 79.68403093 73 82 C72.99413376 81.21596802 72.98826752 80.43193604 72.98222351 79.62414551 C72.92414764 72.20949023 72.85198672 64.79516528 72.76428509 57.38080597 C72.71969361 53.56964767 72.68041345 49.75859349 72.65356445 45.94726562 C72.62741855 42.26418114 72.58693827 38.58149981 72.53681374 34.89866638 C72.52022083 33.49862205 72.50865961 32.09850811 72.50238609 30.69837952 C72.58571553 17.86837243 72.58571553 17.86837243 66.3125 7.125 C59.5611274 2.79393078 52.51559879 2.69143186 44.7265625 2.69921875 C43.76277679 2.69493362 42.79899109 2.6906485 41.80599976 2.68623352 C39.77724998 2.68051824 37.74847971 2.67996916 35.71972656 2.68432617 C32.640915 2.68748368 29.56306794 2.66399978 26.484375 2.63867188 C24.50260536 2.63639812 22.52083318 2.63569574 20.5390625 2.63671875 C19.63145172 2.627509 18.72384094 2.61829926 17.78872681 2.60881042 C8.49121335 2.67504454 0.7638772 4.41411957 -6 11 C-4.18686863 7.22264299 -2.08502338 3.63183951 0 0 Z " fill="#9D7ED4" transform="translate(470,42)"/>
<path d="M0 0 C0.73863281 0.33773437 1.47726562 0.67546875 2.23828125 1.0234375 C3.76001953 1.69246094 3.76001953 1.69246094 5.3125 2.375 C6.29863281 2.81585938 7.28476562 3.25671875 8.30078125 3.7109375 C17.24401242 6.82737497 26.14078282 7.28790484 35.53979492 7.22705078 C36.74109039 7.22734283 37.94238586 7.22763489 39.18008423 7.22793579 C42.43766414 7.22679056 45.69506668 7.21683933 48.95261168 7.20278788 C52.37052482 7.19018828 55.78844234 7.18910281 59.20637512 7.18673706 C65.66237254 7.18054917 72.1183013 7.16417525 78.57426864 7.14403808 C85.93108506 7.12159472 93.28790495 7.11066455 100.64474714 7.10064721 C115.76320285 7.07980627 130.88159452 7.04468331 146 7 C141.78179348 9.81213768 138.0684602 10.12265641 133.08239746 10.14044189 C132.11826935 10.14615204 131.15414124 10.15186218 130.16079712 10.15774536 C128.59136856 10.15942215 128.59136856 10.15942215 126.99023438 10.16113281 C125.32334061 10.16858017 125.32334061 10.16858017 123.62277222 10.17617798 C119.94642516 10.19078086 116.2701213 10.19759995 112.59375 10.203125 C110.03129068 10.20887975 107.46883137 10.21463745 104.90637207 10.22039795 C100.2165188 10.22956181 95.52668271 10.23586305 90.83682203 10.2388947 C83.9647137 10.24336283 77.0928055 10.2608555 70.22075796 10.2898953 C64.24443376 10.31426043 58.26820298 10.3218461 52.29182434 10.32357025 C49.762669 10.32658345 47.23351423 10.33456653 44.70439148 10.34775543 C13.00383236 10.5012134 13.00383236 10.5012134 0 2 C0 1.34 0 0.68 0 0 Z " fill="#B39AE0" transform="translate(423,171)"/>
<path d="M0 0 C0.33 0 0.66 0 1 0 C0.99723462 0.54646337 0.99446924 1.09292673 0.99162006 1.65594959 C0.9251659 14.99540612 0.8758173 28.33483336 0.84456348 41.67442036 C0.82893885 48.12553916 0.80775895 54.57653807 0.77368164 61.02758789 C0.74097421 67.25863504 0.72312292 73.48956719 0.71536827 79.72069359 C0.70984519 82.09241736 0.69906014 84.46413518 0.68280983 86.83580971 C0.66088453 90.16972858 0.65803941 93.50317829 0.65942383 96.8371582 C0.648638 97.80748993 0.63785217 98.77782166 0.6267395 99.77755737 C0.6844857 112.71376262 4.70010977 123.87581916 13.875 133.125 C14.90664119 134.09411748 15.94450203 135.05692193 17 136 C16.34 136.33 15.68 136.66 15 137 C5.12158833 129.49240713 -0.05079163 119.15915667 -2 107 C-2.15129261 103.82394533 -2.14687315 100.65064215 -2.14526367 97.47143555 C-2.14862228 96.51795227 -2.1519809 95.56446899 -2.15544128 94.58209229 C-2.16493106 91.43362114 -2.16689346 88.2852033 -2.16796875 85.13671875 C-2.17118287 82.94342527 -2.17454706 80.75013201 -2.17805481 78.55683899 C-2.18404126 73.95951846 -2.18589522 69.36221673 -2.18530273 64.76489258 C-2.18520118 58.88387241 -2.19884871 53.00297315 -2.21607494 47.12198162 C-2.22721268 42.59143016 -2.22922139 38.06090776 -2.22869301 33.53034401 C-2.22987062 31.36269527 -2.23428012 29.19504573 -2.24202538 27.02741051 C-2.25186027 23.99043777 -2.24893326 20.95372528 -2.24291992 17.91674805 C-2.24853943 17.02764236 -2.25415894 16.13853668 -2.25994873 15.2224884 C-2.23286735 9.81993247 -1.51260114 5.19172258 0 0 Z " fill="#AD90DE" transform="translate(405,34)"/>
<path d="M0 0 C4.87493033 3.8303024 7.36296842 9.87168739 8.29489613 15.91108799 C8.9416961 21.54732647 9.14825537 27.09697255 9.14526367 32.76733398 C9.15030159 34.16435547 9.15030159 34.16435547 9.15544128 35.58959961 C9.16487289 38.64177821 9.16689025 41.69390152 9.16796875 44.74609375 C9.17118604 46.88403851 9.17455046 49.02198306 9.17805481 51.15992737 C9.18402608 55.63079336 9.1858967 60.10164007 9.18530273 64.57250977 C9.18520107 70.28282677 9.19886724 75.99301958 9.21607494 81.70330715 C9.22722642 86.11555035 9.229221 90.52776377 9.22869301 94.94001961 C9.22986784 97.04461153 9.2342615 99.14920435 9.24202538 101.25378227 C9.25189185 104.20369921 9.24892139 107.15334968 9.24291992 110.10327148 C9.24853943 110.96020096 9.25415894 111.81713043 9.25994873 112.70002747 C9.21200686 122.03712388 7.5419518 129.82448677 3 138 C1.72566416 135.45132831 1.72429798 133.82594567 2 131 C2.97850195 129.97895449 3.97980427 128.9793879 5 128 C6.43572239 123.16489869 6.16259333 118.10454414 6.17700195 113.10766602 C6.18685875 111.61874596 6.18685875 111.61874596 6.19691467 110.0997467 C6.21660687 106.81779904 6.22830419 103.53589715 6.23828125 100.25390625 C6.24235678 99.12857924 6.2464323 98.00325222 6.25063133 96.84382439 C6.27147945 90.88196879 6.28578396 84.92013609 6.29516602 78.95825195 C6.30619905 72.82884531 6.34056701 66.69980482 6.38033772 60.57052708 C6.40660946 55.83385082 6.41486744 51.0972602 6.41844749 46.3605175 C6.42328991 44.10291014 6.43483609 41.84530599 6.45348549 39.58777046 C6.56558615 25.11263223 5.49892392 13.52176516 0 0 Z " fill="#B79FE6" transform="translate(592,22)"/>
<path d="M0 0 C3 1 3 1 4.4296875 3.16015625 C13.20028777 20.77246977 16.0936168 37.77468971 16.25 57.3125 C16.25942627 58.21444092 16.26885254 59.11638184 16.27856445 60.0456543 C16.27429443 60.89297119 16.27002441 61.74028809 16.265625 62.61328125 C16.26336914 63.36391846 16.26111328 64.11455566 16.25878906 64.88793945 C15.96577412 67.27932837 15.18583771 68.91889604 14 71 C13.98018066 70.17910889 13.96036133 69.35821777 13.93994141 68.51245117 C13.8609827 65.41277669 13.77427091 62.31343446 13.68261719 59.21411133 C13.62634176 57.23469465 13.57869039 55.25503875 13.53125 53.27539062 C13.44562193 40.81271252 13.44562193 40.81271252 10 29 C9.73841776 27.03813322 9.47995642 25.07565266 9.25390625 23.109375 C8.92656961 20.38996291 8.47208001 17.69760004 8 15 C7.34 15 6.68 15 6 15 C5.72736328 14.12988281 5.72736328 14.12988281 5.44921875 13.2421875 C3.9581894 8.60852707 2.31666424 4.30237645 0 0 Z " fill="#B193E3" transform="translate(376,36)"/>
<path d="M0 0 C0.33 0 0.66 0 1 0 C1 3.3 1 6.6 1 10 C-18.47 10 -37.94 10 -58 10 C-58 9.34 -58 8.68 -58 8 C-39.19 8 -20.38 8 -1 8 C-0.67 5.36 -0.34 2.72 0 0 Z " fill="#CACACD" transform="translate(183,171)"/>
<path d="M0 0 C17.82 0.33 35.64 0.66 54 1 C54.495 1.99 54.495 1.99 55 3 C53.68918457 2.98428955 52.37836914 2.9685791 51.02783203 2.95239258 C46.12636553 2.89775505 41.22492552 2.86352759 36.32324219 2.83520508 C34.2089382 2.82019513 32.09466493 2.7997808 29.98046875 2.77368164 C26.92700579 2.73695367 23.87395743 2.72019526 20.8203125 2.70703125 C19.88760529 2.69154739 18.95489807 2.67606354 17.993927 2.66011047 C8.60151317 2.65774621 0.83769732 4.34224209 -6 11 C-4.17683329 7.20173603 -2.10818471 3.68932325 0 0 Z " fill="#BFA8E6" transform="translate(470,42)"/>
<path d="M0 0 C2.375 2.75 2.375 2.75 4 5 C1.83678249 3.97970694 -0.13833661 2.90624701 -2.12109375 1.5625 C-13.98354889 -6.43915608 -28.51450527 -5.3687153 -42.3125 -5.625 C-44.03582473 -5.66328529 -45.75913249 -5.70234266 -47.48242188 -5.7421875 C-51.65480613 -5.83700801 -55.82727914 -5.92144415 -60 -6 C-60 -6.33 -60 -6.66 -60 -7 C-55.14367353 -7.14372127 -50.28730995 -7.28609116 -45.4309082 -7.42724609 C-43.78115792 -7.47538333 -42.13141809 -7.52388035 -40.48168945 -7.57275391 C-38.10110128 -7.64321529 -35.72047766 -7.71235349 -33.33984375 -7.78125 C-32.24566383 -7.81406067 -32.24566383 -7.81406067 -31.12937927 -7.84753418 C-19.77869256 -8.1720844 -9.15202303 -7.550419 0 0 Z " fill="#BA9FEB" transform="translate(322,52)"/>
<path d="M0 0 C1.96593529 2.94890294 2.49026543 4.67778508 3.25 8.0625 C5.75018887 17.52571489 10.76022364 24.53132408 18 31 C17.34 31.33 16.68 31.66 16 32 C6.35376008 24.66885766 1.75250465 15.17835502 -0.75 3.5 C-0.8325 2.675 -0.915 1.85 -1 1 C-0.67 0.67 -0.34 0.34 0 0 Z " fill="#A98DDE" transform="translate(404,139)"/>
<path d="M0 0 C9.99806295 4.25843422 17.24169678 11.64104602 24 20 C23.34 20.66 22.68 21.32 22 22 C21.62488281 21.45730469 21.24976563 20.91460937 20.86328125 20.35546875 C17.89153341 16.20101018 15.55232369 13.45125122 11 11 C10.195625 10.175 9.39125 9.35 8.5625 8.5 C5.87889073 5.88184461 3.40917548 4.50637986 0 3 C0 2.01 0 1.02 0 0 Z " fill="#B59BE5" transform="translate(352,13)"/>
<path d="M0 0 C1 3 1 3 0.13671875 5.3125 C-3.98789021 12.96137053 -8.95510707 18.82369636 -15 25 C-15 21.29890901 -14.09028966 20.02731606 -12 17 C-11.2575 16.319375 -10.515 15.63875 -9.75 14.9375 C-5.41115526 10.85075939 -2.85459139 5.15800808 0 0 Z " fill="#AB8FDD" transform="translate(383,133)"/>
<path d="M0 0 C-6.83600083 6.147235 -19.20984495 6.46263974 -28 6 C-27.67 5.34 -27.34 4.68 -27 4 C-24.42096121 3.57164754 -21.90977825 3.24845532 -19.3125 3 C-12.79421958 2.35944105 -6.44781369 -0.37928316 0 0 Z " fill="#B298E1" transform="translate(341,174)"/>
<path d="M0 0 C0.99 0.33 1.98 0.66 3 1 C1.700625 1.7734375 1.700625 1.7734375 0.375 2.5625 C-6.45273889 7.15716664 -10.31334187 13.80612285 -14 21 C-14.6640625 19.27734375 -14.6640625 19.27734375 -15 17 C-11.84667079 10.3732668 -6.31030777 3.78618466 0 0 Z " fill="#B397E4" transform="translate(422,11)"/>
<path d="M0 0 C1 3 1 3 0.1796875 5.0859375 C-4.07139204 12.54441837 -8.42430987 16.98934052 -16 21 C-16.66 20.34 -17.32 19.68 -18 19 C-17.113125 18.5875 -16.22625 18.175 -15.3125 17.75 C-9.1407628 14.48945959 -6.27906074 11.23610103 -3.11328125 5.12109375 C-2 3 -2 3 0 0 Z M-18 21 C-17.01 21.495 -17.01 21.495 -16 22 C-16.99 22.495 -16.99 22.495 -18 23 C-18 22.34 -18 21.68 -18 21 Z " fill="#B79DE4" transform="translate(331,111)"/>
<path d="M0 0 C0.71542969 0.32613281 1.43085938 0.65226563 2.16796875 0.98828125 C9.65311064 4.27089846 16.98947781 6.41081576 25 8 C25 8.33 25 8.66 25 9 C15.59148062 9.52269552 7.92546508 6.99648885 0 2 C0 1.34 0 0.68 0 0 Z " fill="#AF94DF" transform="translate(423,171)"/>
<path d="M0 0 C1.43793392 0.31049726 2.8753318 0.6234776 4.3125 0.9375 C5.11300781 1.11152344 5.91351562 1.28554688 6.73828125 1.46484375 C10.80024517 2.42596475 12.41175266 3.10824502 14.625 6.625 C16.94697003 10.48797718 17.72061816 13.52989054 18 18 C16 17 16 17 14.75 13.25 C12.93154879 8.16742887 9.9100786 5.44919577 5.0546875 3.03125 C3.39092749 2.30377599 1.69742795 1.64502262 0 1 C0 0.67 0 0.34 0 0 Z " fill="#B096E3" transform="translate(526,43)"/>
<path d="M0 0 C5.30475449 1.4919622 9.25821979 5.08475978 13 9 C14.23828125 11.2265625 14.23828125 11.2265625 15 13 C12.0625 12.25 12.0625 12.25 9 11 C8.3125 8.9375 8.3125 8.9375 8 7 C7.01 6.67 6.02 6.34 5 6 C4.67 5.34 4.34 4.68 4 4 C1.97536745 3.34786708 1.97536745 3.34786708 0 3 C0 2.01 0 1.02 0 0 Z " fill="#AE93E1" transform="translate(577,9)"/>
<path d="M0 0 C0.33 0 0.66 0 1 0 C1.5297429 7.74013232 0.86688868 14.14121205 -3 21 C-3.66 21.33 -4.32 21.66 -5 22 C-5.1875 18.6875 -5.1875 18.6875 -5 15 C-4.525625 14.5565625 -4.05125 14.113125 -3.5625 13.65625 C-1.30241277 11.26055754 -1.26255718 9.03213982 -0.8125 5.8125 C-0.65394531 4.72582031 -0.49539063 3.63914063 -0.33203125 2.51953125 C-0.22246094 1.68808594 -0.11289062 0.85664063 0 0 Z " fill="#A489DB" transform="translate(599,138)"/>
<path d="M0 0 C0.33 0 0.66 0 1 0 C1.2265625 2.296875 1.2265625 2.296875 1 5 C-2.07862976 8.53182906 -5.92517434 10.68153314 -10.375 12 C-11.24125 12 -12.1075 12 -13 12 C-13.66 11.34 -14.32 10.68 -15 10 C-14.40832031 9.84144531 -13.81664062 9.68289062 -13.20703125 9.51953125 C-7.90474814 7.95393053 -4.61008638 6.39979278 -1 2 C-0.67 1.34 -0.34 0.68 0 0 Z " fill="#B99FE6" transform="translate(541,126)"/>
<path d="M0 0 C0.66 0.33 1.32 0.66 2 1 C-2.21608093 6.16437877 -6.24031055 10.56633898 -12 14 C-12.99 13.67 -13.98 13.34 -15 13 C-14.41992188 12.64808594 -13.83984375 12.29617187 -13.2421875 11.93359375 C-7.81438345 8.50314993 -3.94867235 5.06240045 0 0 Z " fill="#A78DD8" transform="translate(592,161)"/>
<path d="M0 0 C0.99 0 1.98 0 3 0 C3 0.66 3 1.32 3 2 C3.66 2.66 4.32 3.32 5 4 C4.113125 4.4125 3.22625 4.825 2.3125 5.25 C-0.81312366 6.90127288 -3.31905614 8.71331259 -6 11 C-4.18690997 7.22272911 -2.0926741 3.62730178 0 0 Z " fill="#B697E9" transform="translate(470,42)"/>
<path d="M0 0 C4.31334508 2.23104056 5.15360179 5.49320342 6.58203125 9.84375 C7 12 7 12 6 15 C4.99539469 12.87717331 3.99644398 10.75166979 3 8.625 C2.443125 7.44164063 1.88625 6.25828125 1.3125 5.0390625 C0 2 0 2 0 0 Z " fill="#B08DDD" transform="translate(326,58)"/>
<path d="M0 0 C0.66 0.99 1.32 1.98 2 3 C1.01 3 0.02 3 -1 3 C0.32 3.66 1.64 4.32 3 5 C2.01 6.485 2.01 6.485 1 8 C0.01 8 -0.98 8 -2 8 C-2 6.35 -2 4.7 -2 3 C-2.66 2.67 -3.32 2.34 -4 2 C-2.68 1.34 -1.36 0.68 0 0 Z " fill="#BD99F3" transform="translate(427,8)"/>
<path d="M0 0 C-1.34882814 4.04648443 -3.34826069 4.95502599 -7 7 C-7.99 6.67 -8.98 6.34 -10 6 C-8.71283353 4.99421411 -7.42011342 3.99553202 -6.125 3 C-5.40570313 2.443125 -4.68640625 1.88625 -3.9453125 1.3125 C-2 0 -2 0 0 0 Z " fill="#AC91DD" transform="translate(363,161)"/>
<path d="M0 0 C2.64 0.66 5.28 1.32 8 2 C7.67 2.66 7.34 3.32 7 4 C3.95613276 4.08226668 1.92824652 3.97608217 -1 3 C-0.67 2.01 -0.34 1.02 0 0 Z " fill="#B58FEE" transform="translate(340,169)"/>
<path d="M0 0 C2.37948772 0.17625835 3.70225849 0.69719773 5.37890625 2.40234375 C6.62115486 3.90649092 7.81376056 5.45129851 9 7 C4.58110387 5.64978174 2.65654657 3.73884332 0 0 Z " fill="#B69FE1" transform="translate(413,164)"/>
<path d="M0 0 C1.32 0.66 2.64 1.32 4 2 C2.68 3.32 1.36 4.64 0 6 C-0.66 4.68 -1.32 3.36 -2 2 C-1.34 1.34 -0.68 0.68 0 0 Z " fill="#BC9DEC" transform="translate(364,156)"/>
</svg>
