<?xml version="1.0" encoding="UTF-8"?>
<svg version="1.1" xmlns="http://www.w3.org/2000/svg" width="512" height="512">
<path d="M0 0 C0.96594086 0.00054382 1.93188171 0.00108765 2.92709351 0.00164795 C18.82427694 0.04267209 34.1070568 0.96742637 49.6875 4.375 C51.16669922 4.69645996 51.16669922 4.69645996 52.67578125 5.02441406 C101.53665776 16.02291411 149.39188546 42.47830381 181.6875 81.375 C182.46996094 82.24640625 183.25242187 83.1178125 184.05859375 84.015625 C213.00993644 116.51674278 232.16563537 159.5009304 238.6875 202.375 C238.86265137 203.49511475 239.03780273 204.61522949 239.21826172 205.76928711 C240.8222463 217.07945314 241.08675288 228.27504914 241.0625 239.6875 C241.06168427 241.13641129 241.06168427 241.13641129 241.06085205 242.61459351 C241.01982791 258.51177694 240.09507363 273.7945568 236.6875 289.375 C236.36604004 290.85419922 236.36604004 290.85419922 236.03808594 292.36328125 C225.03958589 341.22415776 198.58419619 389.07938546 159.6875 421.375 C158.38039063 422.54869141 158.38039063 422.54869141 157.046875 423.74609375 C124.54575722 452.69743644 81.5615696 471.85313537 38.6875 478.375 C37.56738525 478.55015137 36.44727051 478.72530273 35.29321289 478.90576172 C23.98304686 480.5097463 12.78745086 480.77425288 1.375 480.75 C0.40905914 480.74945618 -0.55688171 480.74891235 -1.55209351 480.74835205 C-17.44927694 480.70732791 -32.7320568 479.78257363 -48.3125 476.375 C-49.29863281 476.16069336 -50.28476563 475.94638672 -51.30078125 475.72558594 C-100.16165776 464.72708589 -148.01688546 438.27169619 -180.3125 399.375 C-181.09496094 398.50359375 -181.87742188 397.6321875 -182.68359375 396.734375 C-211.63493644 364.23325722 -230.79063537 321.2490696 -237.3125 278.375 C-237.48765137 277.25488525 -237.66280273 276.13477051 -237.84326172 274.98071289 C-239.4472463 263.67054686 -239.71175288 252.47495086 -239.6875 241.0625 C-239.68695618 240.09655914 -239.68641235 239.13061829 -239.68585205 238.13540649 C-239.64482791 222.23822306 -238.72007363 206.9554432 -235.3125 191.375 C-235.09819336 190.38886719 -234.88388672 189.40273437 -234.66308594 188.38671875 C-223.66458589 139.52584224 -197.20919619 91.67061454 -158.3125 59.375 C-157.44109375 58.59253906 -156.5696875 57.81007812 -155.671875 57.00390625 C-123.17075722 28.05256356 -80.1865696 8.89686463 -37.3125 2.375 C-36.19238525 2.19984863 -35.07227051 2.02469727 -33.91821289 1.84423828 C-22.60804686 0.2402537 -11.41245086 -0.02425288 0 0 Z M28.3046875 122.625 C24.57768263 126.3687179 21.02066529 130.20740705 17.5703125 134.20703125 C15.4717468 136.62342951 13.333103 139.00029024 11.1875 141.375 C8.49766569 144.35562721 5.82439636 147.34745233 3.1875 150.375 C-0.20503093 154.27012811 -3.66444201 158.10282763 -7.125 161.9375 C-9.03804149 164.06917481 -10.93137612 166.2151911 -12.8125 168.375 C-16.20503093 172.27012811 -19.66444201 176.10282763 -23.125 179.9375 C-25.03804149 182.06917481 -26.93137612 184.2151911 -28.8125 186.375 C-32.20503093 190.27012811 -35.66444201 194.10282763 -39.125 197.9375 C-41.03804149 200.06917481 -42.93137612 202.2151911 -44.8125 204.375 C-48.20503093 208.27012811 -51.66444201 212.10282763 -55.125 215.9375 C-57.60523365 218.70118893 -60.04934606 221.49388784 -62.48046875 224.30078125 C-63.85709068 225.85938732 -65.2601517 227.39470456 -66.67578125 228.91796875 C-67.88814453 230.22701172 -67.88814453 230.22701172 -69.125 231.5625 C-69.87394531 232.36042969 -70.62289062 233.15835938 -71.39453125 233.98046875 C-73.32060563 236.38511966 -74.33730663 238.47005891 -75.3125 241.375 C-74.45978516 242.31859375 -74.45978516 242.31859375 -73.58984375 243.28125 C-69.97250034 247.2911265 -66.35928738 251.30245355 -62.8125 255.375 C-60.17560364 258.40254767 -57.50233431 261.39437279 -54.8125 264.375 C-51.54859152 267.99176345 -48.32459051 271.63889608 -45.125 275.3125 C-43.04038836 277.68464429 -40.92821356 280.03056065 -38.8125 282.375 C-35.54859152 285.99176345 -32.32459051 289.63889608 -29.125 293.3125 C-27.04038836 295.68464429 -24.92821356 298.03056065 -22.8125 300.375 C-19.54859152 303.99176345 -16.32459051 307.63889608 -13.125 311.3125 C-11.04038836 313.68464429 -8.92821356 316.03056065 -6.8125 318.375 C-3.54859152 321.99176345 -0.32459051 325.63889608 2.875 329.3125 C4.95961164 331.68464429 7.07178644 334.03056065 9.1875 336.375 C12.44213076 339.98148273 15.65729743 343.6179674 18.84765625 347.28125 C22.42119663 351.34795412 26.0577953 355.35845603 29.6875 359.375 C34.50295957 355.9604014 38.81015916 352.38997125 42.91796875 348.15234375 C45.33024882 345.72941344 47.9002948 343.517231 50.48828125 341.28515625 C54.60720352 337.70761986 58.63989224 334.03277668 62.6875 330.375 C62.1004951 327.07298475 61.08957313 325.3860359 58.7734375 322.984375 C58.18071045 322.36135498 57.5879834 321.73833496 56.97729492 321.09643555 C56.3454126 320.44586182 55.71353027 319.79528809 55.0625 319.125 C53.77388496 317.77294943 52.48611408 316.42009376 51.19921875 315.06640625 C50.58481934 314.4233252 49.97041992 313.78024414 49.33740234 313.11767578 C46.92076823 310.56515516 44.61739311 307.92457361 42.32421875 305.26171875 C40.30876228 302.93841213 38.24901538 300.65751535 36.1875 298.375 C32.92359152 294.75823655 29.69959051 291.11110392 26.5 287.4375 C24.41538836 285.06535571 22.30321356 282.71943935 20.1875 280.375 C16.92359152 276.75823655 13.69959051 273.11110392 10.5 269.4375 C8.41538836 267.06535571 6.30321356 264.71943935 4.1875 262.375 C0.31113949 258.07815292 -3.51293587 253.73971669 -7.3125 249.375 C-8.62463495 247.87468066 -9.93712751 246.37467399 -11.25 244.875 C-12.27083333 243.70833333 -13.29166667 242.54166667 -14.3125 241.375 C-12.69637092 237.45144963 -9.9991819 234.66105335 -7.125 231.625 C-6.12301284 230.55011738 -5.12170995 229.47459648 -4.12109375 228.3984375 C-3.63624512 227.87862305 -3.15139648 227.35880859 -2.65185547 226.82324219 C-0.39753483 224.38565013 1.77027485 221.87524527 3.9453125 219.3671875 C6.00250399 217.01479365 8.09346915 214.69465034 10.1875 212.375 C12.87733431 209.39437279 15.55060364 206.40254767 18.1875 203.375 C21.58003093 199.47987189 25.03944201 195.64717237 28.5 191.8125 C30.41304149 189.68082519 32.30637612 187.5348089 34.1875 185.375 C37.58003093 181.47987189 41.03944201 177.64717237 44.5 173.8125 C46.9779323 171.05137544 49.42184077 168.26345364 51.84375 165.453125 C53.24773857 163.87066331 54.69312302 162.32482407 56.15625 160.796875 C56.9915625 159.91515625 57.826875 159.0334375 58.6875 158.125 C59.47125 157.31546875 60.255 156.5059375 61.0625 155.671875 C62.9247391 153.57550439 62.9247391 153.57550439 62.48266602 151.43188477 C61.54928731 149.01748023 60.4980343 147.90530062 58.58984375 146.16796875 C57.95699463 145.58474854 57.32414551 145.00152832 56.67211914 144.40063477 C55.99656982 143.79405029 55.32102051 143.18746582 54.625 142.5625 C53.93978271 141.93593506 53.25456543 141.30937012 52.54858398 140.66381836 C48.56414008 137.03131869 44.55753702 133.42117217 40.46875 129.90625 C37.69975097 127.52588242 34.98097656 125.08836954 32.25390625 122.66015625 C30.2322848 120.94299544 30.2322848 120.94299544 28.3046875 122.625 Z " fill="#000000" transform="translate(255.3125,15.625)"/>
</svg>
