<?xml version="1.0" encoding="UTF-8"?>
<svg version="1.1" xmlns="http://www.w3.org/2000/svg" width="603" height="414">
<path d="M0 0 C1.35923352 -0.00299595 2.71846619 -0.00639948 4.07769775 -0.01017761 C7.75572934 -0.01898015 11.43373763 -0.02135422 15.11177874 -0.0219934 C17.41568141 -0.02270633 19.71957824 -0.02484532 22.02347946 -0.02749062 C30.07848229 -0.03673353 38.13346861 -0.04082706 46.18847656 -0.04003906 C53.66774041 -0.03943942 61.14693188 -0.04997168 68.62617743 -0.06578273 C75.06978396 -0.07891338 81.513367 -0.08422061 87.95698678 -0.08358365 C91.79538228 -0.08333017 95.63371346 -0.08609753 99.47209549 -0.0967617 C103.08860704 -0.10653551 106.70499404 -0.10645923 110.32151031 -0.09924507 C112.25960401 -0.09772236 114.19769795 -0.10598176 116.13577271 -0.11468506 C132.10622332 -0.0581903 147.02505193 1.80422443 159.31787109 12.70385742 C168.70041112 22.53430765 168.7101702 36.13374866 168.70532227 48.86669922 C168.70868088 50.13591721 168.71203949 51.40513519 168.71549988 52.71281433 C168.72429774 56.18004198 168.72667627 59.64724491 168.72731566 63.11448264 C168.72802879 65.28638001 168.73016811 67.45827119 168.73281288 69.63016701 C168.74205377 77.22366354 168.74614952 84.81714257 168.74536133 92.41064453 C168.74476152 99.46163003 168.7552976 106.51253878 168.77110499 113.56350487 C168.78423352 119.63852153 168.78954298 125.71351328 168.78890592 131.788544 C168.7886524 135.40725616 168.79142166 139.02590012 168.80208397 142.64459801 C168.81367521 146.68873608 168.80898581 150.7327052 168.80297852 154.77685547 C168.80859802 155.95701233 168.81421753 157.13716919 168.82000732 158.35308838 C168.77257696 170.98442514 167.80727766 184.58980397 158.56005859 194.14526367 C157.90005859 194.14526367 157.24005859 194.14526367 156.56005859 194.14526367 C156.56005859 194.80526367 156.56005859 195.46526367 156.56005859 196.14526367 C145.85668073 204.56896106 134.77455928 205.28155659 121.73583984 205.49682617 C120.44139954 205.5206134 119.14695923 205.54440063 117.81329346 205.56890869 C113.49984551 205.6455802 109.18625472 205.70936091 104.87255859 205.77026367 C103.76262102 205.78617428 103.76262102 205.78617428 102.63026047 205.80240631 C76.99202431 206.16422954 51.35354553 206.2498768 25.71347046 206.05804443 C22.00365399 206.03064402 18.29404708 206.0142087 14.58413696 206.00738525 C10.17402773 205.99821825 5.76477113 205.96402481 1.35497284 205.91139984 C-0.26466303 205.89575005 -1.88440137 205.88810712 -3.50411224 205.88950348 C-18.16801072 205.89081388 -30.37710363 203.47556021 -41.15869141 192.83666992 C-44.46978894 188.93025519 -46.65832671 184.92708667 -48.43994141 180.14526367 C-48.78303659 179.23206423 -49.12613178 178.31886478 -49.47962379 177.37799263 C-50.46223601 174.07021309 -50.69636712 171.43966634 -50.70736694 167.99972534 C-50.7201619 166.18328773 -50.7201619 166.18328773 -50.73321533 164.33015442 C-50.73185577 162.35700508 -50.73185577 162.35700508 -50.73046875 160.34399414 C-50.73645827 158.93402248 -50.74326479 157.52405409 -50.75082397 156.11408997 C-50.76845362 152.29349582 -50.77317822 148.47299133 -50.77445555 144.65236044 C-50.77588006 142.26052139 -50.78015545 139.86870492 -50.78544998 137.47687149 C-50.80394411 129.11827404 -50.81212185 120.75974027 -50.81054688 112.40112305 C-50.80934742 104.63377911 -50.83041268 96.86671392 -50.8620342 89.09944046 C-50.88827653 82.4129745 -50.89891077 75.72659909 -50.89763606 69.0400821 C-50.89712852 65.05463551 -50.90269487 61.06943647 -50.92399216 57.0840416 C-50.94350791 53.32954196 -50.94340926 49.57552249 -50.92895889 45.82100487 C-50.92590584 43.80516071 -50.94245569 41.78931583 -50.95983887 39.77354431 C-50.88556953 28.90289417 -49.19556792 18.84062804 -41.34619141 10.82495117 C-29.63115718 0.50227757 -14.90345907 -0.00534545 0 0 Z M24.56005859 55.14526367 C24.56005859 87.15526367 24.56005859 119.16526367 24.56005859 152.14526367 C47.99005859 152.14526367 71.42005859 152.14526367 95.56005859 152.14526367 C95.56005859 120.13526367 95.56005859 88.12526367 95.56005859 55.14526367 C72.13005859 55.14526367 48.70005859 55.14526367 24.56005859 55.14526367 Z " fill="#38393C" transform="translate(194.43994140625,204.854736328125)"/>
<path d="M0 0 C1.36348241 -0.00436109 2.72696239 -0.00954882 4.09043884 -0.01548767 C7.75394499 -0.02874097 11.41734713 -0.02947164 15.08087254 -0.02692437 C18.15925235 -0.02584498 21.23761193 -0.03076267 24.31598735 -0.03552979 C31.59039407 -0.04657842 38.86474913 -0.04708914 46.13916016 -0.04101562 C53.59692773 -0.03498388 61.05450626 -0.04727723 68.5122416 -0.06858569 C74.95688952 -0.08630973 81.40147787 -0.09218606 87.84614921 -0.08894795 C91.67678465 -0.08715156 95.50728531 -0.0896037 99.33789825 -0.10366249 C141.18544365 -0.24396544 141.18544365 -0.24396544 152.85058594 8.2746582 C153.90246094 8.9965332 154.95433594 9.7184082 156.03808594 10.4621582 C162.87363051 17.29770277 167.08220097 25.77333888 167.1247406 35.49612427 C167.13471573 36.72391098 167.14469086 37.95169769 167.15496826 39.21669006 C167.15586393 40.56430041 167.15652757 41.91191092 167.15698242 43.25952148 C167.16461028 44.6891981 167.17303886 46.11887063 167.1822052 47.54853821 C167.20410085 51.42284002 167.21294294 55.29706293 167.21803164 59.17141962 C167.22168238 61.59676063 167.22792628 64.02208121 167.23503304 66.4474144 C167.25951461 74.92271577 167.27257573 83.3979561 167.27612305 91.87329102 C167.27975285 99.7497518 167.30961146 107.62582162 167.35152763 115.50216305 C167.38633221 122.28204673 167.40167327 129.06180154 167.40236908 135.84177387 C167.40315873 139.88317579 167.41175143 143.92417952 167.44036674 147.96548843 C167.46672125 151.77258799 167.46865728 155.57896425 167.45271111 159.38611412 C167.45091004 160.77434441 167.45746445 162.16261796 167.47352982 163.55075645 C167.60533924 175.6914916 165.09706643 185.51900937 156.69433594 194.5559082 C152.4292545 198.53183158 148.69376795 200.99885899 143.16308594 202.9621582 C142.02484375 203.37852539 140.88660156 203.79489258 139.71386719 204.22387695 C132.18782144 206.53148257 124.0670021 206.42579998 116.26074219 206.4074707 C115.32312546 206.40888062 114.38550873 206.41029053 113.41947937 206.41174316 C110.25064579 206.41391147 107.08190993 206.40745683 103.91308594 206.3996582 C102.80284058 206.3981073 101.69259521 206.3965564 100.54870605 206.3949585 C90.98250349 206.37976026 81.41660782 206.33246158 71.85058594 206.2746582 C70.52564747 206.26668213 70.52564747 206.26668213 69.17394257 206.25854492 C56.04918328 206.17821304 42.92470858 206.07626967 29.80026245 205.95526123 C25.67408367 205.91737933 21.54790267 205.88362636 17.42166138 205.85333252 C12.4887119 205.81665587 7.55594251 205.77024319 2.62314796 205.71672058 C0.78753426 205.69828675 -1.04811485 205.68305576 -2.88378334 205.67127991 C-18.31659957 205.56835601 -31.98926324 205.06775755 -44.02441406 194.0246582 C-53.39894501 183.83886977 -53.29923897 172.55842521 -53.29467773 159.47998047 C-53.29767335 158.08307811 -53.30107681 156.68617658 -53.30485535 155.28927612 C-53.31365707 151.51034393 -53.3160318 147.73143441 -53.31667113 143.95249295 C-53.31738364 141.58832583 -53.31952172 139.22416441 -53.32216835 136.8599987 C-53.33140804 128.60327668 -53.33550483 120.34657077 -53.3347168 112.08984375 C-53.33411589 104.40712399 -53.34467382 96.72447442 -53.36046046 89.04177243 C-53.37355466 82.43264041 -53.37889993 75.82353129 -53.37826139 69.2143864 C-53.37800702 65.27275205 -53.3808246 61.33118016 -53.39143944 57.38955879 C-53.40115252 53.68195753 -53.40117771 49.97447807 -53.39392281 46.26687241 C-53.39238642 44.26698463 -53.40070061 42.26709678 -53.40936279 40.26722717 C-53.37039701 29.08137995 -51.94135924 20.54735772 -44.17285156 12.1340332 C-31.92314354 0.44703261 -16.1711536 -0.03217867 0 0 Z M21.85058594 55.2746582 C21.85058594 87.2846582 21.85058594 119.2946582 21.85058594 152.2746582 C46.27058594 152.2746582 70.69058594 152.2746582 95.85058594 152.2746582 C95.85058594 120.2646582 95.85058594 88.2546582 95.85058594 55.2746582 C71.43058594 55.2746582 47.01058594 55.2746582 21.85058594 55.2746582 Z " fill="#37383C" transform="translate(433.1494140625,204.725341796875)"/>
<path d="M0 0 C1.59877991 -0.00503792 1.59877991 -0.00503792 3.2298584 -0.01017761 C6.74805879 -0.01966391 10.26621145 -0.02162972 13.78442383 -0.02270508 C16.23814412 -0.02591981 18.69186422 -0.02928405 21.14558411 -0.03279114 C26.28928064 -0.03877699 31.43296039 -0.04063165 36.57666016 -0.04003906 C43.14900957 -0.0399376 49.72125057 -0.05357626 56.29357433 -0.07081127 C61.36296579 -0.08196326 66.43233132 -0.08395727 71.50173378 -0.08342934 C73.92368251 -0.08460515 76.345632 -0.08900442 78.76756859 -0.0967617 C82.16543401 -0.10662395 85.56306788 -0.10365871 88.9609375 -0.09765625 C89.94989517 -0.10327576 90.93885284 -0.10889526 91.95777893 -0.11468506 C107.36212034 -0.04597827 121.03032055 3.44258053 132.39770508 14.11010742 C142.97809161 25.02606591 144.45686801 37.41444906 144.44921875 51.91259766 C144.45257736 52.84394531 144.45593597 53.77529297 144.45939636 54.73486328 C144.46882797 57.78704188 144.47084533 60.83916519 144.47192383 63.89135742 C144.47514112 66.02930218 144.47850554 68.16724673 144.48200989 70.30519104 C144.48798116 74.77605703 144.48985178 79.24690374 144.48925781 83.71777344 C144.48915614 89.42809044 144.50282232 95.13828325 144.52003002 100.84857082 C144.5311815 105.26081402 144.53317607 109.67302744 144.53264809 114.08528328 C144.53382291 116.1898752 144.53821657 118.29446802 144.54598045 120.39904594 C144.55584693 123.34896288 144.55287647 126.29861335 144.546875 129.24853516 C144.55249451 130.10546463 144.55811401 130.9623941 144.56390381 131.84529114 C144.49960665 144.36772144 141.33777085 156.20301779 132.55395508 165.52026367 C116.78215487 179.83391631 98.08640352 178.60007226 78.01879883 178.54370117 C75.46920183 178.54572589 72.91960541 178.54864064 70.37001038 178.55239868 C65.04706734 178.55680245 59.72428111 178.55074577 54.40136719 178.53637695 C48.28233427 178.52004789 42.16360133 178.52535315 36.04457563 178.54185617 C30.11146975 178.55720579 24.17845555 178.55546056 18.24533272 178.54671097 C15.74130777 178.54472191 13.23727507 178.54712228 10.7332592 178.55414963 C-8.9688152 178.59732435 -26.62690747 178.34457392 -41.91479492 164.12182617 C-51.00064924 154.03971589 -53.84061296 141.85208454 -53.85717773 128.68017578 C-53.86214264 127.73311768 -53.86710754 126.78605957 -53.8722229 125.81030273 C-53.88681084 122.68106351 -53.89364233 119.55187505 -53.89916992 116.42260742 C-53.90492587 114.23889668 -53.91068354 112.05518595 -53.91644287 109.87147522 C-53.92694448 105.29094203 -53.93279208 100.71042634 -53.9362793 96.12988281 C-53.94175025 90.28507619 -53.96575203 84.44050414 -53.99425125 78.59577084 C-54.01295918 74.08221278 -54.01808765 69.56871019 -54.01961517 65.05511665 C-54.02262583 62.90192958 -54.03060015 60.74874312 -54.04380035 58.59559441 C-54.14634589 40.57697816 -52.99467387 26.3045708 -40.69604492 12.14526367 C-28.78438506 2.58014114 -14.86485864 -0.00674276 0 0 Z M10.36645508 46.20776367 C5.1802123 53.59423066 4.86186004 62.06513072 4.94067383 70.82104492 C4.94017532 71.90806198 4.93967682 72.99507904 4.93916321 74.11503601 C4.94149054 76.40174193 4.95113917 78.68845106 4.96777344 80.97509766 C4.99131836 84.43765707 4.98832895 87.89944152 4.98168945 91.36206055 C3.85672718 111.53284296 3.85672718 111.53284296 11.30395508 129.14526367 C16.55814465 132.47507928 21.60766986 134.25193883 27.83789062 134.30639648 C28.72949387 134.31600403 29.62109711 134.32561157 30.53971863 134.33551025 C31.49703384 134.33976013 32.45434906 134.34401001 33.44067383 134.34838867 C34.43468704 134.35408875 35.42870026 134.35978882 36.45283508 134.36566162 C38.55676208 134.3751026 40.6607038 134.38164202 42.76464844 134.38549805 C45.96226286 134.39517532 49.15922657 134.42619597 52.35668945 134.45776367 C54.40551378 134.46429711 56.45434269 134.46954624 58.50317383 134.47338867 C59.92396492 134.49190887 59.92396492 134.49190887 61.37345886 134.51080322 C68.73414039 134.48645783 75.26913598 133.52033949 81.17895508 128.89526367 C87.00223497 121.3592544 86.74578941 114.43441747 86.70239258 105.18041992 C86.70441722 103.81953272 86.70733189 102.45864658 86.71109009 101.09776306 C86.71549666 98.25419726 86.70913774 95.41091543 86.69506836 92.56738281 C86.6779934 88.94169733 86.68781688 85.31667906 86.70578575 81.6910181 C86.71668306 78.88296075 86.71314994 76.0750587 86.70540237 73.26699638 C86.70245711 71.28631528 86.71149178 69.30562788 86.72079468 67.32496643 C86.66263334 59.83321057 86.47256168 53.30055031 81.76098633 47.12182617 C81.21829102 46.67581055 80.6755957 46.22979492 80.11645508 45.77026367 C79.58665039 45.3087793 79.0568457 44.84729492 78.51098633 44.37182617 C72.15107419 40.83729093 65.11054929 40.83740435 58.03051758 40.84448242 C57.06673187 40.8401973 56.10294617 40.83591217 55.10995483 40.83149719 C53.08120505 40.82578191 51.05243479 40.82523283 49.02368164 40.82958984 C45.94487007 40.83274735 42.86702302 40.80926345 39.78833008 40.78393555 C37.80656044 40.7816618 35.82478825 40.78095941 33.84301758 40.78198242 C32.9354068 40.77277267 32.02779602 40.76356293 31.09268188 40.7540741 C23.66360768 40.80699773 16.54718024 41.86810558 10.36645508 46.20776367 Z " fill="#BC92FD" transform="translate(456.696044921875,2.854736328125)"/>
<path d="M0 0 C0.93746567 -0.00426498 1.87493134 -0.00852997 2.84080505 -0.01292419 C3.87805725 -0.01247101 4.91530945 -0.01201782 5.98399353 -0.0115509 C7.07034592 -0.01490952 8.1566983 -0.01826813 9.27597046 -0.02172852 C12.8947207 -0.03128297 16.51342479 -0.03318478 20.13218689 -0.03425598 C22.64833597 -0.0374687 25.16448486 -0.04083279 27.68063354 -0.04434204 C32.97446703 -0.05034679 38.2682833 -0.05222363 43.56211853 -0.05158997 C49.64383319 -0.05099332 55.72545796 -0.06145804 61.80714995 -0.07733363 C67.68200081 -0.09211327 73.55681695 -0.09557432 79.43168449 -0.09498024 C81.91648662 -0.09615281 84.40128956 -0.10053349 86.88607979 -0.10831261 C113.47404029 -0.18366568 140.54530747 0.55095742 160.77110291 20.13566589 C162.08370085 21.45214389 163.37259219 22.79214014 164.65953064 24.13371277 C165.27312439 24.75117371 165.88671814 25.36863464 166.51890564 26.00480652 C183.2294914 43.96437935 186.5602423 71.51242922 185.94468689 94.91886902 C185.34787523 108.22602101 183.42221242 121.01730492 177.65953064 133.13371277 C177.2173822 134.08504089 176.77523376 135.03636902 176.31968689 136.01652527 C172.78002574 143.05662696 168.13023519 148.50904842 162.65953064 154.13371277 C161.87578064 154.99996277 161.09203064 155.86621277 160.28453064 156.75871277 C152.85600687 163.47975808 144.9659998 168.46044809 135.65953064 172.13371277 C134.46427261 172.61713135 133.26901459 173.10054993 132.03753662 173.59861755 C116.07475078 179.53876043 97.9769885 178.55329785 81.24156189 178.46183777 C78.76147578 178.45877234 76.28138794 178.45690219 73.80130005 178.4561615 C68.65216796 178.45159908 63.50319583 178.43731749 58.35411072 178.41496277 C51.74084405 178.38639929 45.12770108 178.37571861 38.51437855 178.37128067 C33.41624715 178.3671398 28.31814085 178.35733815 23.2200222 178.34540558 C20.77864978 178.33969978 18.33727495 178.3349421 15.89589882 178.33113861 C12.50952948 178.32430931 9.12326077 178.31070047 5.73692322 178.29484558 C4.21852341 178.29316879 4.21852341 178.29316879 2.66944885 178.29145813 C1.29716377 178.28289291 1.29716377 178.28289291 -0.10284424 178.27415466 C-1.30138676 178.26969267 -1.30138676 178.26969267 -2.52414227 178.26514053 C-4.34046936 178.13371277 -4.34046936 178.13371277 -5.34046936 177.13371277 C-5.439745 174.87043822 -5.46679378 172.60399746 -5.467453 170.33854675 C-5.46901299 169.61969268 -5.47057298 168.9008386 -5.47218025 168.16020107 C-5.47619274 165.73338249 -5.47299965 163.30662565 -5.46986389 160.87980652 C-5.47121782 159.14731306 -5.47299771 157.41481989 -5.47517395 155.68232727 C-5.47974926 150.96345444 -5.47795832 146.24460337 -5.47479486 141.52573013 C-5.47227177 136.59875172 -5.47460866 131.67177523 -5.47618103 126.74479675 C-5.47800287 118.46915857 -5.47559603 110.19352929 -5.47084045 101.91789246 C-5.46539781 92.33566416 -5.46716045 82.75345714 -5.47266686 73.17122936 C-5.47719757 64.95979473 -5.47784874 56.74836652 -5.47522819 48.53693104 C-5.47366518 43.62573714 -5.47347229 38.71455325 -5.47676468 33.80335999 C-5.47964279 29.18729018 -5.47766882 24.57124793 -5.47187042 19.95518112 C-5.4705425 18.25596538 -5.47093748 16.55674734 -5.47313309 14.8575325 C-5.47584334 12.54794941 -5.47246503 10.23845607 -5.467453 7.92887878 C-5.46707598 6.63321487 -5.46669895 5.33755096 -5.4663105 4.00262451 C-5.26985857 -0.47606389 -4.06341249 0.00831487 0 0 Z M55.65953064 43.13371277 C55.65953064 72.17371277 55.65953064 101.21371277 55.65953064 131.13371277 C87.11838589 133.00117557 87.11838589 133.00117557 115.90953064 122.94621277 C124.31023396 114.35458437 127.03453321 102.81927077 127.65953064 91.13371277 C127.7123822 90.45179871 127.76523376 89.76988464 127.81968689 89.06730652 C128.31392017 77.74291793 125.67253989 65.74311047 119.65953064 56.13371277 C119.10265564 55.22621277 118.54578064 54.31871277 117.97203064 53.38371277 C101.89209638 37.73837132 75.55045119 43.13371277 55.65953064 43.13371277 Z " fill="#BC92FD" transform="translate(206.34046936035156,2.8662872314453125)"/>
<path d="M0 0 C18.81 0 37.62 0 57 0 C57.87069773 3.4827909 58.12162895 5.96977897 58.11352539 9.50292969 C58.11344986 10.60376892 58.11337433 11.70460815 58.11329651 12.83880615 C58.10813522 14.02121887 58.10297394 15.20363159 58.09765625 16.421875 C58.0962413 17.63699768 58.09482635 18.85212036 58.09336853 20.10406494 C58.08776988 23.98606831 58.0752176 27.86801406 58.0625 31.75 C58.05748483 34.38150958 58.05292195 37.01302007 58.04882812 39.64453125 C58.03780089 46.09637383 58.02106408 52.5481828 58 59 C59.02904198 58.99666908 59.02904198 58.99666908 60.07887268 58.99327087 C67.2329964 58.9711102 74.38711033 58.95604839 81.54125977 58.94506836 C84.20957367 58.94061239 86.87783373 58.9332276 89.54614258 58.92456055 C93.38623736 58.91240156 97.22629569 58.90675026 101.06640625 58.90234375 C102.84961021 58.89460182 102.84961021 58.89460182 104.6688385 58.88670349 C110.22097445 58.88632928 115.53358856 58.99695689 121 60 C120.99777939 59.26306412 120.99555878 58.52612823 120.99327087 57.76686096 C120.97326797 50.83587231 120.95802587 43.90488796 120.94818783 36.97387791 C120.94296005 33.41022578 120.93586431 29.84659743 120.92456055 26.28295898 C120.91165824 22.18993903 120.90677094 18.0969442 120.90234375 14.00390625 C120.89718246 12.71851456 120.89202118 11.43312286 120.88670349 10.10877991 C120.88662796 8.92763107 120.88655243 7.74648224 120.88647461 6.52954102 C120.884254 5.48363297 120.88203339 4.43772491 120.87974548 3.36012268 C121 1 121 1 122 0 C123.80509373 -0.09899561 125.61406928 -0.12799151 127.421875 -0.12939453 C128.57977539 -0.13254669 129.73767578 -0.13569885 130.93066406 -0.13894653 C132.82123535 -0.13591019 132.82123535 -0.13591019 134.75 -0.1328125 C136.03358398 -0.13376923 137.31716797 -0.13472595 138.63964844 -0.13571167 C141.36003824 -0.13718831 144.08039525 -0.13503519 146.80078125 -0.13037109 C150.29484669 -0.12467381 153.78883533 -0.12795299 157.28289795 -0.13394356 C160.60527153 -0.13841754 163.92762423 -0.13528885 167.25 -0.1328125 C168.51038086 -0.13483673 169.77076172 -0.13686096 171.06933594 -0.13894653 C172.22723633 -0.13579437 173.38513672 -0.13264221 174.578125 -0.12939453 C175.60325195 -0.12859894 176.62837891 -0.12780334 177.68457031 -0.12698364 C180 0 180 0 181 1 C181.09709071 3.27823745 181.12186604 5.55955423 181.12025452 7.83985901 C181.12153615 8.9253238 181.12153615 8.9253238 181.12284368 10.03271717 C181.12450062 12.47569346 181.11897365 14.91860222 181.11352539 17.36157227 C181.11324354 19.10553994 181.11340121 20.84950774 181.1139679 22.59347534 C181.11425595 27.34327495 181.10835797 32.09304953 181.10139394 36.84284329 C181.09516169 41.80098422 181.0945567 46.75912566 181.09336853 51.7172699 C181.09025483 61.11309828 181.08204093 70.50891509 181.07201904 79.90473837 C181.06085909 90.59863149 181.05534775 101.29252516 181.05032361 111.98642266 C181.03985834 133.99095491 181.02225816 155.99547673 181 178 C173.32463373 178.02312821 165.64927104 178.04091753 157.97387791 178.05181217 C154.41022578 178.05703995 150.84659743 178.06413569 147.28295898 178.07543945 C143.18993903 178.08834176 139.0969442 178.09322906 135.00390625 178.09765625 C133.07581871 178.10539818 133.07581871 178.10539818 131.10877991 178.11329651 C129.33705666 178.11340981 129.33705666 178.11340981 127.52954102 178.11352539 C125.96067894 178.11685631 125.96067894 178.11685631 124.36012268 178.12025452 C122 178 122 178 121 177 C120.9057826 174.88318683 120.88257239 172.76319242 120.88647461 170.64428711 C120.88632858 169.98089828 120.88618256 169.31750946 120.8860321 168.63401794 C120.88673119 166.43176044 120.89452335 164.22958655 120.90234375 162.02734375 C120.90420794 160.50419664 120.90563184 158.98104893 120.90663147 157.457901 C120.91045654 153.44162349 120.92028672 149.42538192 120.93133545 145.40911865 C120.9433445 140.59420261 120.94795186 135.77927456 120.95378876 130.96434784 C120.96349849 123.64287353 120.98265509 116.32147815 121 109 C100.21 109.33 79.42 109.66 58 110 C58.01160156 114.65738281 58.02320313 119.31476563 58.03515625 124.11328125 C58.0402651 127.06185035 58.04507903 130.010414 58.04882812 132.95898438 C58.05480848 137.64022961 58.0618873 142.32145531 58.07543945 147.00268555 C58.08629584 150.77630515 58.09228269 154.54990381 58.09487724 158.32353783 C58.09672652 159.76405352 58.10033762 161.20456806 58.10573006 162.64507484 C58.11297686 164.6609142 58.11340837 166.67677458 58.11352539 168.69262695 C58.115746 169.84068314 58.11796661 170.98873932 58.12025452 172.17158508 C58 175 58 175 57 178 C38.19 178 19.38 178 0 178 C0 119.26 0 60.52 0 0 Z " fill="#D6D6D9" transform="translate(3,3)"/>
<path d="M0 0 C1.00121384 -0.00281982 2.00242767 -0.00563965 3.03398132 -0.00854492 C4.14155289 -0.00652069 5.24912445 -0.00449646 6.39025879 -0.00241089 C7.54947342 -0.00416321 8.70868805 -0.00591553 9.9030304 -0.00772095 C13.75621005 -0.0121423 17.60934425 -0.00920047 21.46252441 -0.00582886 C24.12670957 -0.00650181 26.79089332 -0.00747006 29.45507812 -0.00872803 C35.04724627 -0.01054957 40.63940123 -0.00814381 46.23156738 -0.00338745 C52.70549943 0.00205514 59.17939999 0.00029248 65.65333128 -0.00521386 C71.20236847 -0.00974542 76.75139615 -0.01039533 82.30043459 -0.00777519 C85.6187275 -0.00621265 88.93700227 -0.0064081 92.2552948 -0.00931168 C95.95264855 -0.01183653 99.64994089 -0.00799996 103.34729004 -0.00241089 C104.4548616 -0.00443512 105.56243317 -0.00645935 106.7035675 -0.00854492 C108.20538826 -0.00431519 108.20538826 -0.00431519 109.73754883 0 C110.61287514 0.00037703 111.48820145 0.00075405 112.3900528 0.0011425 C114.36877441 0.12698364 114.36877441 0.12698364 115.36877441 1.12698364 C115.46658225 3.75722337 115.4987183 6.36118914 115.48902893 8.99186707 C115.48988336 9.82576617 115.49073778 10.65966528 115.4916181 11.51883405 C115.49327546 14.33493454 115.48774736 17.15097647 115.4822998 19.96707153 C115.48201796 21.97704568 115.48217561 23.98701993 115.48274231 25.99699402 C115.4830304 31.47197575 115.47713184 36.94693577 115.47016835 42.42191243 C115.46393669 48.13678838 115.46333117 53.85166476 115.46214294 59.56654358 C115.45902907 70.3967179 115.45081493 81.22688218 115.44079345 92.05705208 C115.42963405 104.38332066 115.4241223 116.70958971 115.41909802 129.03586209 C115.40863236 154.39957613 115.39028619 179.7632764 115.36877441 205.12698364 C90.28877441 205.12698364 65.20877441 205.12698364 39.36877441 205.12698364 C39.36877441 155.95698364 39.36877441 106.78698364 39.36877441 56.12698364 C24.51877441 56.12698364 9.66877441 56.12698364 -5.63122559 56.12698364 C-5.65412729 48.3124129 -5.67405661 40.49795764 -5.68615723 32.68338013 C-5.69119941 30.02256883 -5.69803295 27.36176032 -5.70666504 24.70095825 C-5.71873567 20.88592849 -5.72445488 17.07093521 -5.72888184 13.25588989 C-5.73404312 12.05799332 -5.73920441 10.86009674 -5.74452209 9.62590027 C-5.74459763 8.52483444 -5.74467316 7.42376862 -5.74475098 6.28933716 C-5.74697159 5.31448868 -5.7491922 4.3396402 -5.7514801 3.33525085 C-5.53147344 -0.7047928 -3.55320182 0.00153046 0 0 Z " fill="#37393C" transform="translate(8.6312255859375,204.87301635742188)"/>
<path d="M0 0 C0.33 0 0.66 0 1 0 C1 67.32 1 134.64 1 204 C-24.08 204 -49.16 204 -75 204 C-75.04010881 184.51603173 -75.04010881 184.51603173 -75.04882812 176.1484375 C-75.05478334 170.46060237 -75.06179399 164.77278349 -75.07543945 159.08496094 C-75.08638253 154.49433465 -75.09230081 149.9037258 -75.09487724 145.31308746 C-75.09671106 143.57020036 -75.1002916 141.8273141 -75.10573006 140.08443451 C-75.13391505 130.66909914 -75.02532516 121.37419382 -74 112 C-71.42498183 115.86121196 -71.7323282 119.88697666 -71.77294922 124.34863281 C-71.77265717 125.18802399 -71.77236511 126.02741516 -71.77206421 126.89224243 C-71.77345591 129.66264231 -71.78900961 132.43277219 -71.8046875 135.203125 C-71.8084182 137.12554782 -71.8112649 139.04797255 -71.81326294 140.97039795 C-71.82089492 146.02731588 -71.84053973 151.08411872 -71.8626709 156.14099121 C-71.88673802 162.20995709 -71.89591238 168.27896147 -71.90757751 174.34796143 C-71.92696433 183.56538764 -71.96528998 192.78256136 -72 202 C-48.57 202 -25.14 202 -1 202 C-1.00523682 195.9163501 -1.01047363 189.8327002 -1.01586914 183.56469727 C-1.03239938 163.51992497 -1.04351977 143.47515242 -1.05181217 123.4303751 C-1.05697582 111.27088131 -1.06401983 99.11139396 -1.07543945 86.9519043 C-1.08538419 76.35784032 -1.09185292 65.763781 -1.09408849 55.16971248 C-1.09539596 49.55650597 -1.09848406 43.9433128 -1.10573006 38.33011055 C-1.11248696 33.05333464 -1.11461764 27.77657765 -1.11310768 22.49979782 C-1.11338416 20.55708527 -1.11539123 18.61437212 -1.11920547 16.67166328 C-1.12413758 14.03141574 -1.12300009 11.39124084 -1.12025452 8.75099182 C-1.12316736 7.97182406 -1.1260802 7.19265629 -1.12908131 6.38987738 C-1.11412121 1.11412121 -1.11412121 1.11412121 0 0 Z " fill="#2E2E30" transform="translate(123,206)"/>
<path d="M0 0 C1.42137268 -0.00422974 1.42137268 -0.00422974 2.87145996 -0.00854492 C4.44383423 -0.00550858 4.44383423 -0.00550858 6.04797363 -0.00241089 C7.69436829 -0.00503937 7.69436829 -0.00503937 9.37402344 -0.00772095 C13.02642367 -0.01214513 16.67877598 -0.00919788 20.33117676 -0.00582886 C22.86409515 -0.00650212 25.39701347 -0.00747234 27.92993164 -0.00872803 C33.25313997 -0.01020608 38.576331 -0.00814339 43.89953613 -0.00338745 C50.0370316 0.00203301 56.17449373 0.00030907 62.31198835 -0.00521386 C68.22423546 -0.01031975 74.13647232 -0.00975153 80.04872131 -0.00683212 C82.55884302 -0.00616633 85.06896559 -0.0069791 87.5790863 -0.00931168 C91.09998794 -0.01186337 94.62082666 -0.00796113 98.14172363 -0.00241089 C99.1737793 -0.00443512 100.20583496 -0.00645935 101.26916504 -0.00854492 C107.13077997 0.00849253 112.79847055 0.37099674 118.61242676 1.12698364 C118.61242676 1.78698364 118.61242676 2.44698364 118.61242676 3.12698364 C58.22242676 2.63198364 58.22242676 2.63198364 -3.38757324 2.12698364 C-3.38757324 59.54698364 -3.38757324 116.96698364 -3.38757324 176.12698364 C32.91242676 176.12698364 69.21242676 176.12698364 106.61242676 176.12698364 C106.61242676 176.45698364 106.61242676 176.78698364 106.61242676 177.12698364 C69.65242676 177.12698364 32.69242676 177.12698364 -5.38757324 177.12698364 C-5.42787628 133.03098609 -5.42787628 133.03098609 -5.43640137 114.61331177 C-5.44234491 101.8747823 -5.44934809 89.13625943 -5.4630127 76.3977356 C-5.47295793 67.12211443 -5.47942629 57.84649859 -5.48166174 48.57087225 C-5.48296912 43.65630683 -5.48605669 38.74175666 -5.4933033 33.82719612 C-5.50006099 29.20704016 -5.50219072 24.58690581 -5.50068092 19.96674538 C-5.50095737 18.26591627 -5.50296397 16.56508648 -5.50677872 14.86426163 C-5.51171205 12.55244027 -5.51057288 10.24070183 -5.50782776 7.92887878 C-5.50874955 6.63191606 -5.50967134 5.33495333 -5.51062107 3.9986887 C-5.31768111 -0.50416742 -4.08246498 0.00185879 0 0 Z " fill="#A98CD9" transform="translate(206.3875732421875,2.873016357421875)"/>
<path d="M0 0 C12.189375 -0.020625 24.37875 -0.04125 36.9375 -0.0625 C42.71882446 -0.07615601 42.71882446 -0.07615601 48.61694336 -0.09008789 C53.30969238 -0.09460449 53.30969238 -0.09460449 55.50392151 -0.09544373 C57.04221383 -0.09698313 58.58050492 -0.10050799 60.11878967 -0.10557556 C62.44371652 -0.11285418 64.76856939 -0.11390738 67.09350586 -0.11352539 C69.06207802 -0.11685631 69.06207802 -0.11685631 71.07041931 -0.12025452 C74 0 74 0 75 1 C75.09533653 4.1050725 75.12551126 7.18786458 75.11352539 10.29321289 C75.11367142 11.26871597 75.11381744 12.24421906 75.1139679 13.24928284 C75.11326833 16.49042953 75.10547391 19.73151954 75.09765625 22.97265625 C75.09579222 25.21325143 75.09436825 27.45384702 75.09336853 29.69444275 C75.08954213 35.6045951 75.0797108 41.51472305 75.06866455 47.42486572 C75.0566591 54.50915269 75.05204877 61.59344779 75.04621124 68.677742 C75.03649911 79.451845 75.0173434 90.2258944 75 101 C50.91 101 26.82 101 2 101 C2 100.34 2 99.68 2 99 C25.43 99 48.86 99 73 99 C73 66.99 73 34.98 73 2 C49.24 2 25.48 2 1 2 C1 34.34 1 66.68 1 100 C0.67 100 0.34 100 0 100 C0 67 0 34 0 0 Z " fill="#1F1F21" transform="translate(217,258)"/>
<path d="M0 0 C7.54498233 -0.02312851 15.08996101 -0.04091769 22.63497066 -0.05181217 C26.13808885 -0.05703989 29.64118285 -0.0641355 33.14428711 -0.07543945 C37.16780841 -0.08834206 41.19130414 -0.09322912 45.21484375 -0.09765625 C46.47836166 -0.10281754 47.74187958 -0.10797882 49.04368591 -0.11329651 C50.204814 -0.11337204 51.36594208 -0.11344757 52.56225586 -0.11352539 C54.1044706 -0.11685631 54.1044706 -0.11685631 55.67784119 -0.12025452 C58 0 58 0 59 1 C59.09709071 3.27823745 59.12186604 5.55955423 59.12025452 7.83985901 C59.12110894 8.5635022 59.12196337 9.28714539 59.12284368 10.03271717 C59.12450062 12.47569346 59.11897365 14.91860222 59.11352539 17.36157227 C59.11324354 19.10553994 59.11340121 20.84950774 59.1139679 22.59347534 C59.11425595 27.34327495 59.10835797 32.09304953 59.10139394 36.84284329 C59.09516169 41.80098422 59.0945567 46.75912566 59.09336853 51.7172699 C59.09025483 61.11309828 59.08204093 70.50891509 59.07201904 79.90473837 C59.06085909 90.59863149 59.05534775 101.29252516 59.05032361 111.98642266 C59.03985834 133.99095634 59.02151239 155.99547415 59 178 C39.53 178 20.06 178 0 178 C0 177.34 0 176.68 0 176 C18.81 176 37.62 176 57 176 C57 118.58 57 61.16 57 2 C38.19 2 19.38 2 0 2 C0 1.34 0 0.68 0 0 Z " fill="#BFBEC2" transform="translate(125,3)"/>
<path d="M0 0 C1.3788207 -0.00299568 2.75764057 -0.00639915 4.13645935 -0.01017761 C7.86573927 -0.0189779 11.59499621 -0.02135398 15.32428551 -0.0219934 C17.65695304 -0.02270589 19.98961479 -0.02484392 22.32228088 -0.02749062 C30.4676246 -0.03672923 38.612952 -0.04082716 46.75830078 -0.04003906 C54.33993018 -0.03943791 61.92148851 -0.05000088 69.50309992 -0.06578273 C76.02389436 -0.07887071 82.5446656 -0.08422247 89.06547308 -0.08358365 C92.95509692 -0.08332914 96.84465749 -0.08615498 100.73426819 -0.0967617 C104.39179957 -0.10646449 108.04920743 -0.10650699 111.70674324 -0.09924507 C113.68177516 -0.09770636 115.65680713 -0.10602976 117.63182068 -0.11468506 C123.59138864 -0.09360631 128.76189441 0.05866889 134.37304688 2.14526367 C134.37304688 2.47526367 134.37304688 2.80526367 134.37304688 3.14526367 C82.89304687 3.14526367 31.41304687 3.14526367 -21.62695312 3.14526367 C-21.29695313 2.48526367 -20.96695312 1.82526367 -20.62695312 1.14526367 C-13.88148297 -0.38736626 -6.87910242 -0.00243121 0 0 Z " fill="#636266" transform="translate(432.626953125,204.854736328125)"/>
<path d="M0 0 C1.76427589 -0.00422974 1.76427589 -0.00422974 3.56419373 -0.00854492 C4.84589447 -0.00652069 6.12759521 -0.00449646 7.44813538 -0.00241089 C8.81843106 -0.00376667 10.18872637 -0.00554761 11.559021 -0.00772095 C15.27389444 -0.0122746 18.98874007 -0.0105141 22.703614 -0.00734186 C26.59522625 -0.00480708 30.48683614 -0.00715897 34.37844849 -0.00872803 C40.9143771 -0.01054667 47.45029441 -0.00815164 53.98622131 -0.00338745 C61.53599833 0.0020523 69.08574833 0.00029336 76.63552469 -0.00521386 C83.12314139 -0.00975639 89.61074997 -0.01038987 96.09836775 -0.00777519 C99.97064218 -0.00621841 103.84290393 -0.0060022 107.71517754 -0.00931168 C111.35705767 -0.01220686 114.9989031 -0.01018443 118.6407795 -0.00441742 C120.61005226 -0.00247093 122.57932798 -0.00542987 124.54859924 -0.00854492 C126.31710487 -0.00431519 126.31710487 -0.00431519 128.12133789 0 C129.14172118 0.00037703 130.16210447 0.00075405 131.21340847 0.0011425 C134.25293162 0.13255082 137.1363067 0.56686447 140.12416077 1.12698364 C140.12416077 1.78698364 140.12416077 2.44698364 140.12416077 3.12698364 C89.96416077 3.12698364 39.80416077 3.12698364 -11.87583923 3.12698364 C-11.54583923 2.46698364 -11.21583923 1.80698364 -10.87583923 1.12698364 C-7.24180268 0.10549582 -3.7580685 0.0013891 0 0 Z " fill="#626265" transform="translate(186.87583923339844,204.87301635742188)"/>
<path d="M0 0 C1.31493769 0.00138269 1.31493769 0.00138269 2.65643978 0.00279331 C4.16042828 0.00073132 4.16042828 0.00073132 5.69480038 -0.00137234 C7.35851429 0.00402058 7.35851429 0.00402058 9.05583858 0.00952244 C10.21665951 0.00937641 11.37748043 0.00923038 12.57347775 0.00907993 C16.43146759 0.00977966 20.28940985 0.01757485 24.14739132 0.02539158 C26.81397235 0.02725555 29.48055071 0.02872871 32.14713192 0.0296793 C38.46177386 0.03279235 44.77639858 0.04100539 51.09103292 0.05102879 C58.2783414 0.06219073 65.46565068 0.06770058 72.65296566 0.07272422 C87.44148096 0.08318802 102.22998272 0.10078696 117.01848507 0.12304783 C116.68848507 1.11304783 116.35848507 2.10304783 116.01848507 3.12304783 C77.73848507 3.12304783 39.45848507 3.12304783 0.01848507 3.12304783 C-0.64151493 4.77304783 -1.30151493 6.42304783 -1.98151493 8.12304783 C-2.31151493 8.12304783 -2.64151493 8.12304783 -2.98151493 8.12304783 C-3.02393216 5.79010007 -3.0224443 3.45602216 -2.98151493 1.12304783 C-1.98151493 0.12304783 -1.98151493 0.12304783 0 0 Z " fill="#666666" transform="translate(5.981514930725098,204.87695217132568)"/>
<path d="M0 0 C0.99 0 1.98 0 3 0 C4.53515625 1.9765625 4.53515625 1.9765625 6.0625 4.625 C6.56910156 5.48351562 7.07570313 6.34203125 7.59765625 7.2265625 C10.14080699 12.25619209 11.2497237 16.60733806 11.26742554 22.24165344 C11.27595551 23.47377563 11.28448547 24.70589783 11.29327393 25.97535706 C11.29257501 27.3277284 11.291652 28.68009965 11.29052734 30.0324707 C11.2965165 31.46701404 11.30332294 32.90155417 11.31088257 34.33609009 C11.32851103 38.2225961 11.33323663 42.10901398 11.33451414 45.99555612 C11.33593816 48.42690392 11.34021251 50.85822949 11.34550858 53.28957176 C11.36399886 61.78087149 11.3721805 70.27210854 11.37060547 78.76342773 C11.36940454 86.66374986 11.39049983 94.56379858 11.4220928 102.46405154 C11.44829266 109.25917441 11.4589712 116.05420819 11.45769465 122.84938115 C11.45718608 126.90235877 11.46281084 130.95509334 11.48405075 135.0080204 C11.50349581 138.82242529 11.50351534 142.63635682 11.48901749 146.45077896 C11.48693597 147.84509795 11.49159093 149.23944705 11.5037384 150.63371468 C11.5689871 158.6462964 11.11062749 164.99607188 7 172 C6 169 6 169 6.92033386 165.68077087 C8.56949313 159.57244017 8.28668855 153.39257026 8.2746582 147.10766602 C8.27901182 145.71223683 8.28419713 144.31681002 8.29014587 142.92138672 C8.30347643 139.15068806 8.30412127 135.38008999 8.30158257 131.60937238 C8.30050893 128.45344429 8.30540619 125.29753624 8.310188 122.14161247 C8.32126237 114.69261882 8.3217321 107.24367562 8.31567383 99.79467773 C8.30963353 92.12725174 8.32195116 84.46000922 8.3432439 76.79261452 C8.36089349 70.19277996 8.36685602 63.59300363 8.36360615 56.99314636 C8.36179869 53.05873521 8.36437569 49.12445501 8.37832069 45.19006538 C8.39094949 41.48895675 8.38890763 37.78813306 8.37590981 34.0870285 C8.37243906 32.09330493 8.3836843 30.09957245 8.39547729 28.10588074 C8.34246322 19.00580392 6.94256085 11.82111712 2.3125 3.9375 C1.87550781 3.18339844 1.43851563 2.42929688 0.98828125 1.65234375 C0.66214844 1.10707031 0.33601562 0.56179687 0 0 Z " fill="#1A1B1D" transform="translate(589,218)"/>
<path d="M0 0 C7.53707979 -0.09309011 15.0740992 -0.16396136 22.61162472 -0.20724869 C26.11246632 -0.2280352 29.61291173 -0.25618599 33.11352539 -0.30175781 C37.14733466 -0.35393628 41.18073428 -0.37301886 45.21484375 -0.390625 C46.45894516 -0.41127014 47.70304657 -0.43191528 48.98484802 -0.45318604 C55.9576173 -0.4549705 62.12298786 -0.09364887 68 4 C75.22588751 12.48946119 75.30041243 21.77808905 75.265625 32.44921875 C75.26753845 33.73939407 75.2694519 35.0295694 75.27142334 36.35884094 C75.27435875 39.07789954 75.27012619 41.796826 75.26074219 44.51586914 C75.24931422 47.99609406 75.255938 51.47601158 75.26788712 54.9562254 C75.2768562 58.28724777 75.27057625 61.61818765 75.265625 64.94921875 C75.26967346 66.19716721 75.27372192 67.44511566 75.27789307 68.73088074 C75.26843658 70.46837334 75.26843658 70.46837334 75.25878906 72.2409668 C75.25719788 73.25909958 75.25560669 74.27723236 75.25396729 75.32621765 C74.99650935 78.03674972 74.38928409 79.68403093 73 82 C72.99413376 81.21596802 72.98826752 80.43193604 72.98222351 79.62414551 C72.92414764 72.20949023 72.85198672 64.79516528 72.76428509 57.38080597 C72.71969361 53.56964767 72.68041345 49.75859349 72.65356445 45.94726562 C72.62741855 42.26418114 72.58693827 38.58149981 72.53681374 34.89866638 C72.52022083 33.49862205 72.50865961 32.09850811 72.50238609 30.69837952 C72.58571553 17.86837243 72.58571553 17.86837243 66.3125 7.125 C59.5611274 2.79393078 52.51559879 2.69143186 44.7265625 2.69921875 C43.76277679 2.69493362 42.79899109 2.6906485 41.80599976 2.68623352 C39.77724998 2.68051824 37.74847971 2.67996916 35.71972656 2.68432617 C32.640915 2.68748368 29.56306794 2.66399978 26.484375 2.63867188 C24.50260536 2.63639812 22.52083318 2.63569574 20.5390625 2.63671875 C19.63145172 2.627509 18.72384094 2.61829926 17.78872681 2.60881042 C8.49121335 2.67504454 0.7638772 4.41411957 -6 11 C-4.18686863 7.22264299 -2.08502338 3.63183951 0 0 Z " fill="#9D7ED4" transform="translate(470,42)"/>
<path d="M0 0 C50.16 0 100.32 0 152 0 C152 0.66 152 1.32 152 2 C146.52301781 2.92260306 141.25135932 3.14566878 135.703125 3.1328125 C134.76081024 3.13413177 133.81849548 3.13545105 132.84762573 3.1368103 C129.64838642 3.1387628 126.44923093 3.13226126 123.25 3.125 C122.13558533 3.12411377 121.02117065 3.12322754 119.87298584 3.12231445 C79.91415517 3.08610409 39.95523245 2.49067899 0 2 C0 1.34 0 0.68 0 0 Z " fill="#262729" transform="translate(414,408)"/>
<path d="M0 0 C48.51 0.33 97.02 0.66 147 1 C147 1.66 147 2.32 147 3 C111.5787891 3.82053723 76.19368525 4.11370216 40.76480103 3.65937424 C38.05626897 3.62492074 35.34771887 3.59237223 32.63916016 3.56008911 C28.3612164 3.50820601 24.08340223 3.45012909 19.80561638 3.38656425 C18.21974617 3.36339199 16.63385469 3.34162931 15.04794502 3.32133675 C12.87829149 3.29278784 10.70883432 3.25795918 8.53930664 3.22119141 C6.70826134 3.19335068 6.70826134 3.19335068 4.84022522 3.16494751 C2 3 2 3 0 2 C0 1.34 0 0.68 0 0 Z " fill="#242526" transform="translate(178,407)"/>
<path d="M0 0 C0.73863281 0.33773437 1.47726562 0.67546875 2.23828125 1.0234375 C3.76001953 1.69246094 3.76001953 1.69246094 5.3125 2.375 C6.29863281 2.81585938 7.28476562 3.25671875 8.30078125 3.7109375 C17.24401242 6.82737497 26.14078282 7.28790484 35.53979492 7.22705078 C36.74109039 7.22734283 37.94238586 7.22763489 39.18008423 7.22793579 C42.43766414 7.22679056 45.69506668 7.21683933 48.95261168 7.20278788 C52.37052482 7.19018828 55.78844234 7.18910281 59.20637512 7.18673706 C65.66237254 7.18054917 72.1183013 7.16417525 78.57426864 7.14403808 C85.93108506 7.12159472 93.28790495 7.11066455 100.64474714 7.10064721 C115.76320285 7.07980627 130.88159452 7.04468331 146 7 C141.78179348 9.81213768 138.0684602 10.12265641 133.08239746 10.14044189 C132.11826935 10.14615204 131.15414124 10.15186218 130.16079712 10.15774536 C128.59136856 10.15942215 128.59136856 10.15942215 126.99023438 10.16113281 C125.32334061 10.16858017 125.32334061 10.16858017 123.62277222 10.17617798 C119.94642516 10.19078086 116.2701213 10.19759995 112.59375 10.203125 C110.03129068 10.20887975 107.46883137 10.21463745 104.90637207 10.22039795 C100.2165188 10.22956181 95.52668271 10.23586305 90.83682203 10.2388947 C83.9647137 10.24336283 77.0928055 10.2608555 70.22075796 10.2898953 C64.24443376 10.31426043 58.26820298 10.3218461 52.29182434 10.32357025 C49.762669 10.32658345 47.23351423 10.33456653 44.70439148 10.34775543 C13.00383236 10.5012134 13.00383236 10.5012134 0 2 C0 1.34 0 0.68 0 0 Z " fill="#B39AE0" transform="translate(423,171)"/>
<path d="M0 0 C0.33 0 0.66 0 1 0 C1 17.16 1 34.32 1 52 C15.85 52 30.7 52 46 52 C47.69778453 55.39556907 47.14146379 59.26129892 47.1328125 62.99609375 C47.13376923 63.89940933 47.13472595 64.80272491 47.13571167 65.7334137 C47.13639344 67.65259877 47.13453939 69.57178613 47.13037109 71.4909668 C47.12507852 74.39442312 47.13028698 77.29772075 47.13671875 80.20117188 C47.14255087 98.21485086 47.14255087 98.21485086 46 107 C45.67 107 45.34 107 45 107 C44.67 89.84 44.34 72.68 44 55 C29.15 54.67 14.3 54.34 -1 54 C-1.02298218 47.27388284 -1.04288801 40.54790251 -1.05493164 33.82177734 C-1.05995364 31.53466327 -1.06677247 29.24755239 -1.07543945 26.96044922 C-1.08759845 23.66893727 -1.09324973 20.37746785 -1.09765625 17.0859375 C-1.10281754 16.06696381 -1.10797882 15.04799011 -1.11329651 13.99813843 C-1.11367254 9.21605739 -1.0064403 4.70136471 0 0 Z " fill="#212223" transform="translate(4,207)"/>
<path d="M0 0 C0.33 0 0.66 0 1 0 C0.99723462 0.54646337 0.99446924 1.09292673 0.99162006 1.65594959 C0.9251659 14.99540612 0.8758173 28.33483336 0.84456348 41.67442036 C0.82893885 48.12553916 0.80775895 54.57653807 0.77368164 61.02758789 C0.74097421 67.25863504 0.72312292 73.48956719 0.71536827 79.72069359 C0.70984519 82.09241736 0.69906014 84.46413518 0.68280983 86.83580971 C0.66088453 90.16972858 0.65803941 93.50317829 0.65942383 96.8371582 C0.648638 97.80748993 0.63785217 98.77782166 0.6267395 99.77755737 C0.6844857 112.71376262 4.70010977 123.87581916 13.875 133.125 C14.90664119 134.09411748 15.94450203 135.05692193 17 136 C16.34 136.33 15.68 136.66 15 137 C5.12158833 129.49240713 -0.05079163 119.15915667 -2 107 C-2.15129261 103.82394533 -2.14687315 100.65064215 -2.14526367 97.47143555 C-2.14862228 96.51795227 -2.1519809 95.56446899 -2.15544128 94.58209229 C-2.16493106 91.43362114 -2.16689346 88.2852033 -2.16796875 85.13671875 C-2.17118287 82.94342527 -2.17454706 80.75013201 -2.17805481 78.55683899 C-2.18404126 73.95951846 -2.18589522 69.36221673 -2.18530273 64.76489258 C-2.18520118 58.88387241 -2.19884871 53.00297315 -2.21607494 47.12198162 C-2.22721268 42.59143016 -2.22922139 38.06090776 -2.22869301 33.53034401 C-2.22987062 31.36269527 -2.23428012 29.19504573 -2.24202538 27.02741051 C-2.25186027 23.99043777 -2.24893326 20.95372528 -2.24291992 17.91674805 C-2.24853943 17.02764236 -2.25415894 16.13853668 -2.25994873 15.2224884 C-2.23286735 9.81993247 -1.51260114 5.19172258 0 0 Z " fill="#AD90DE" transform="translate(405,34)"/>
<path d="M0 0 C4.87493033 3.8303024 7.36296842 9.87168739 8.29489613 15.91108799 C8.9416961 21.54732647 9.14825537 27.09697255 9.14526367 32.76733398 C9.15030159 34.16435547 9.15030159 34.16435547 9.15544128 35.58959961 C9.16487289 38.64177821 9.16689025 41.69390152 9.16796875 44.74609375 C9.17118604 46.88403851 9.17455046 49.02198306 9.17805481 51.15992737 C9.18402608 55.63079336 9.1858967 60.10164007 9.18530273 64.57250977 C9.18520107 70.28282677 9.19886724 75.99301958 9.21607494 81.70330715 C9.22722642 86.11555035 9.229221 90.52776377 9.22869301 94.94001961 C9.22986784 97.04461153 9.2342615 99.14920435 9.24202538 101.25378227 C9.25189185 104.20369921 9.24892139 107.15334968 9.24291992 110.10327148 C9.24853943 110.96020096 9.25415894 111.81713043 9.25994873 112.70002747 C9.21200686 122.03712388 7.5419518 129.82448677 3 138 C1.72566416 135.45132831 1.72429798 133.82594567 2 131 C2.97850195 129.97895449 3.97980427 128.9793879 5 128 C6.43572239 123.16489869 6.16259333 118.10454414 6.17700195 113.10766602 C6.18685875 111.61874596 6.18685875 111.61874596 6.19691467 110.0997467 C6.21660687 106.81779904 6.22830419 103.53589715 6.23828125 100.25390625 C6.24235678 99.12857924 6.2464323 98.00325222 6.25063133 96.84382439 C6.27147945 90.88196879 6.28578396 84.92013609 6.29516602 78.95825195 C6.30619905 72.82884531 6.34056701 66.69980482 6.38033772 60.57052708 C6.40660946 55.83385082 6.41486744 51.0972602 6.41844749 46.3605175 C6.42328991 44.10291014 6.43483609 41.84530599 6.45348549 39.58777046 C6.56558615 25.11263223 5.49892392 13.52176516 0 0 Z " fill="#B79FE6" transform="translate(592,22)"/>
<path d="M0 0 C0.33 0 0.66 0 1 0 C1.33 32.01 1.66 64.02 2 97 C-22.09 97 -46.18 97 -71 97 C-71 96.34 -71 95.68 -71 95 C-47.57 95 -24.14 95 0 95 C0 63.65 0 32.3 0 0 Z " fill="#2A2A2C" transform="translate(290,262)"/>
<path d="M0 0 C9.23997552 -0.02312524 18.47994114 -0.04091601 27.71993923 -0.05181217 C32.00999915 -0.05704061 36.30003933 -0.06413753 40.59008789 -0.07543945 C44.726794 -0.08626975 48.86348108 -0.09227714 53.00020027 -0.09487724 C54.58192304 -0.09673124 56.16364471 -0.10035136 57.74535942 -0.10573006 C59.95322838 -0.1129424 62.16101773 -0.11399086 64.36889648 -0.11352539 C65.62798325 -0.115746 66.88707001 -0.11796661 68.18431091 -0.12025452 C71 0 71 0 72 1 C72.09530981 4.04402422 72.12551639 7.06531708 72.11352539 10.10961914 C72.11367142 11.06561508 72.11381744 12.02161102 72.1139679 13.00657654 C72.11326835 16.18279245 72.10547403 19.35895052 72.09765625 22.53515625 C72.09579222 24.73091093 72.09436825 26.92666602 72.09336853 29.12242126 C72.08954219 34.91420633 72.07971091 40.7059665 72.06866455 46.4977417 C72.05845293 52.40278791 72.05387145 58.30783813 72.04882812 64.21289062 C72.03808875 75.80860472 72.02101093 87.40430029 72 99 C71.67 99 71.34 99 71 99 C70.505 51.48 70.505 51.48 70 3 C67.15523215 1.57761608 64.71127112 1.83575442 61.53076172 1.79467773 C60.86722687 1.78477814 60.20369202 1.77487854 59.52005005 1.76467896 C57.32329903 1.73305084 55.12652637 1.70830146 52.9296875 1.68359375 C51.40796339 1.66302534 49.886245 1.6420289 48.36453247 1.62062073 C44.3565535 1.56538829 40.34852287 1.51598422 36.3404541 1.46777344 C32.25166213 1.41756695 28.16294532 1.36187644 24.07421875 1.30664062 C16.04954268 1.19904472 8.0248038 1.09760296 0 1 C0 0.67 0 0.34 0 0 Z " fill="#19191B" transform="translate(459,258)"/>
<path d="M0 0 C3 1 3 1 4.4296875 3.16015625 C13.20028777 20.77246977 16.0936168 37.77468971 16.25 57.3125 C16.25942627 58.21444092 16.26885254 59.11638184 16.27856445 60.0456543 C16.27429443 60.89297119 16.27002441 61.74028809 16.265625 62.61328125 C16.26336914 63.36391846 16.26111328 64.11455566 16.25878906 64.88793945 C15.96577412 67.27932837 15.18583771 68.91889604 14 71 C13.98018066 70.17910889 13.96036133 69.35821777 13.93994141 68.51245117 C13.8609827 65.41277669 13.77427091 62.31343446 13.68261719 59.21411133 C13.62634176 57.23469465 13.57869039 55.25503875 13.53125 53.27539062 C13.44562193 40.81271252 13.44562193 40.81271252 10 29 C9.73841776 27.03813322 9.47995642 25.07565266 9.25390625 23.109375 C8.92656961 20.38996291 8.47208001 17.69760004 8 15 C7.34 15 6.68 15 6 15 C5.72736328 14.12988281 5.72736328 14.12988281 5.44921875 13.2421875 C3.9581894 8.60852707 2.31666424 4.30237645 0 0 Z " fill="#B193E3" transform="translate(376,36)"/>
<path d="M0 0 C2.17698219 3.93874535 2.27388973 7.31394177 2.23046875 11.734375 C2.23037308 12.50900085 2.2302774 13.28362671 2.23017883 14.08172607 C2.22643183 16.63796944 2.20741263 19.19383523 2.1875 21.75 C2.18061547 23.52538921 2.1741103 25.30077994 2.16796875 27.07617188 C2.07566511 46.05634648 1.57339618 65.02912624 1 84 C0.67 84 0.34 84 0 84 C-0.15467342 74.81971773 -0.30284033 65.63935918 -0.4429636 56.45884323 C-0.50824452 52.19483486 -0.57566981 47.93088401 -0.64819336 43.66699219 C-0.71825051 39.54327508 -0.78241677 35.41950263 -0.84269524 31.29563141 C-0.86655803 29.73134348 -0.89245528 28.16708506 -0.92053413 26.60286713 C-1.07924975 17.67870302 -0.97637077 8.88814731 0 0 Z " fill="#202123" transform="translate(49,318)"/>
<path d="M0 0 C0.33 0 0.66 0 1 0 C1 3.3 1 6.6 1 10 C-18.47 10 -37.94 10 -58 10 C-58 9.34 -58 8.68 -58 8 C-39.19 8 -20.38 8 -1 8 C-0.67 5.36 -0.34 2.72 0 0 Z " fill="#CACACD" transform="translate(183,171)"/>
<path d="M0 0 C0.33 0 0.66 0 1 0 C1 17.16 1 34.32 1 52 C1.99 52 2.98 52 4 52 C4 52.66 4 53.32 4 54 C2.35 54 0.7 54 -1 54 C-1.02540029 47.273934 -1.04288805 40.54788043 -1.05493164 33.82177734 C-1.05995364 31.53466327 -1.06677247 29.24755239 -1.07543945 26.96044922 C-1.08759845 23.66893727 -1.09324973 20.37746785 -1.09765625 17.0859375 C-1.10281754 16.06696381 -1.10797882 15.04799011 -1.11329651 13.99813843 C-1.11367254 9.21605739 -1.0064403 4.70136471 0 0 Z " fill="#18181B" transform="translate(4,207)"/>
<path d="M0 0 C17.82 0.33 35.64 0.66 54 1 C54.495 1.99 54.495 1.99 55 3 C53.68918457 2.98428955 52.37836914 2.9685791 51.02783203 2.95239258 C46.12636553 2.89775505 41.22492552 2.86352759 36.32324219 2.83520508 C34.2089382 2.82019513 32.09466493 2.7997808 29.98046875 2.77368164 C26.92700579 2.73695367 23.87395743 2.72019526 20.8203125 2.70703125 C19.88760529 2.69154739 18.95489807 2.67606354 17.993927 2.66011047 C8.60151317 2.65774621 0.83769732 4.34224209 -6 11 C-4.17683329 7.20173603 -2.10818471 3.68932325 0 0 Z " fill="#BFA8E6" transform="translate(470,42)"/>
<path d="M0 0 C2.375 2.75 2.375 2.75 4 5 C1.83678249 3.97970694 -0.13833661 2.90624701 -2.12109375 1.5625 C-13.98354889 -6.43915608 -28.51450527 -5.3687153 -42.3125 -5.625 C-44.03582473 -5.66328529 -45.75913249 -5.70234266 -47.48242188 -5.7421875 C-51.65480613 -5.83700801 -55.82727914 -5.92144415 -60 -6 C-60 -6.33 -60 -6.66 -60 -7 C-55.14367353 -7.14372127 -50.28730995 -7.28609116 -45.4309082 -7.42724609 C-43.78115792 -7.47538333 -42.13141809 -7.52388035 -40.48168945 -7.57275391 C-38.10110128 -7.64321529 -35.72047766 -7.71235349 -33.33984375 -7.78125 C-32.24566383 -7.81406067 -32.24566383 -7.81406067 -31.12937927 -7.84753418 C-19.77869256 -8.1720844 -9.15202303 -7.550419 0 0 Z " fill="#BA9FEB" transform="translate(322,52)"/>
<path d="M0 0 C1.96593529 2.94890294 2.49026543 4.67778508 3.25 8.0625 C5.75018887 17.52571489 10.76022364 24.53132408 18 31 C17.34 31.33 16.68 31.66 16 32 C6.35376008 24.66885766 1.75250465 15.17835502 -0.75 3.5 C-0.8325 2.675 -0.915 1.85 -1 1 C-0.67 0.67 -0.34 0.34 0 0 Z " fill="#A98DDE" transform="translate(404,139)"/>
<path d="M0 0 C9.99806295 4.25843422 17.24169678 11.64104602 24 20 C23.34 20.66 22.68 21.32 22 22 C21.62488281 21.45730469 21.24976563 20.91460937 20.86328125 20.35546875 C17.89153341 16.20101018 15.55232369 13.45125122 11 11 C10.195625 10.175 9.39125 9.35 8.5625 8.5 C5.87889073 5.88184461 3.40917548 4.50637986 0 3 C0 2.01 0 1.02 0 0 Z " fill="#B59BE5" transform="translate(352,13)"/>
<path d="M0 0 C0.825 0.7425 1.65 1.485 2.5 2.25 C7.94145987 6.78241599 14.5176605 9.29902521 21 12 C21 12.33 21 12.66 21 13 C11.34854341 12.16797788 6.01689727 8.50042514 -1 2 C-0.67 1.34 -0.34 0.68 0 0 Z " fill="#222224" transform="translate(154,395)"/>
<path d="M0 0 C1 3 1 3 0.13671875 5.3125 C-3.98789021 12.96137053 -8.95510707 18.82369636 -15 25 C-15 21.29890901 -14.09028966 20.02731606 -12 17 C-11.2575 16.319375 -10.515 15.63875 -9.75 14.9375 C-5.41115526 10.85075939 -2.85459139 5.15800808 0 0 Z " fill="#AB8FDD" transform="translate(383,133)"/>
<path d="M0 0 C-6.83600083 6.147235 -19.20984495 6.46263974 -28 6 C-27.67 5.34 -27.34 4.68 -27 4 C-24.42096121 3.57164754 -21.90977825 3.24845532 -19.3125 3 C-12.79421958 2.35944105 -6.44781369 -0.37928316 0 0 Z " fill="#B298E1" transform="translate(341,174)"/>
<path d="M0 0 C0.99 0.33 1.98 0.66 3 1 C1.700625 1.7734375 1.700625 1.7734375 0.375 2.5625 C-6.45273889 7.15716664 -10.31334187 13.80612285 -14 21 C-14.6640625 19.27734375 -14.6640625 19.27734375 -15 17 C-11.84667079 10.3732668 -6.31030777 3.78618466 0 0 Z " fill="#B397E4" transform="translate(422,11)"/>
<path d="M0 0 C8.25 0 16.5 0 25 0 C25 0.66 25 1.32 25 2 C19.96145894 2.83211276 15.1874338 3.1078534 10.0625 3.0625 C9.37865234 3.05798828 8.69480469 3.05347656 7.99023438 3.04882812 C6.32678396 3.0371956 4.6633795 3.01926694 3 3 C3 2.34 3 1.68 3 1 C2.01 0.67 1.02 0.34 0 0 Z " fill="#1E1F21" transform="translate(541,408)"/>
<path d="M0 0 C1 3 1 3 0.1796875 5.0859375 C-4.07139204 12.54441837 -8.42430987 16.98934052 -16 21 C-16.66 20.34 -17.32 19.68 -18 19 C-17.113125 18.5875 -16.22625 18.175 -15.3125 17.75 C-9.1407628 14.48945959 -6.27906074 11.23610103 -3.11328125 5.12109375 C-2 3 -2 3 0 0 Z M-18 21 C-17.01 21.495 -17.01 21.495 -16 22 C-16.99 22.495 -16.99 22.495 -18 23 C-18 22.34 -18 21.68 -18 21 Z " fill="#B79DE4" transform="translate(331,111)"/>
<path d="M0 0 C0.71542969 0.32613281 1.43085938 0.65226563 2.16796875 0.98828125 C9.65311064 4.27089846 16.98947781 6.41081576 25 8 C25 8.33 25 8.66 25 9 C15.59148062 9.52269552 7.92546508 6.99648885 0 2 C0 1.34 0 0.68 0 0 Z " fill="#AF94DF" transform="translate(423,171)"/>
<path d="M0 0 C1.43793392 0.31049726 2.8753318 0.6234776 4.3125 0.9375 C5.11300781 1.11152344 5.91351562 1.28554688 6.73828125 1.46484375 C10.80024517 2.42596475 12.41175266 3.10824502 14.625 6.625 C16.94697003 10.48797718 17.72061816 13.52989054 18 18 C16 17 16 17 14.75 13.25 C12.93154879 8.16742887 9.9100786 5.44919577 5.0546875 3.03125 C3.39092749 2.30377599 1.69742795 1.64502262 0 1 C0 0.67 0 0.34 0 0 Z " fill="#B096E3" transform="translate(526,43)"/>
<path d="M0 0 C0.66 0 1.32 0 2 0 C2.26554688 0.88042969 2.53109375 1.76085937 2.8046875 2.66796875 C3.33449219 4.41013672 3.33449219 4.41013672 3.875 6.1875 C4.22304687 7.33605469 4.57109375 8.48460937 4.9296875 9.66796875 C5.84218871 12.50871157 6.84980364 15.24885465 8 18 C5.32944569 16.99012652 4.19330899 16.33172777 2.734375 13.828125 C0.92332721 9.0849046 -0.5444976 5.17272716 0 0 Z " fill="#1D1E1F" transform="translate(145,376)"/>
<path d="M0 0 C5.30475449 1.4919622 9.25821979 5.08475978 13 9 C14.23828125 11.2265625 14.23828125 11.2265625 15 13 C12.0625 12.25 12.0625 12.25 9 11 C8.3125 8.9375 8.3125 8.9375 8 7 C7.01 6.67 6.02 6.34 5 6 C4.67 5.34 4.34 4.68 4 4 C1.97536745 3.34786708 1.97536745 3.34786708 0 3 C0 2.01 0 1.02 0 0 Z " fill="#AE93E1" transform="translate(577,9)"/>
<path d="M0 0 C6 2 12 4 18 6 C18 6.33 18 6.66 18 7 C10.48130488 7.59672183 6.25968955 6.14352972 0 2 C0 1.34 0 0.68 0 0 Z " fill="#29292A" transform="translate(395,401)"/>
<path d="M0 0 C2.49611143 3.74416714 2.64054717 6.66513426 2 11 C0.88834334 14.12230523 -0.47530036 17.05950784 -2 20 C-3.16191359 16.51425922 -2.49739343 14.72870045 -1.546875 11.2734375 C-0.65398604 7.56157053 -0.33398937 3.79693174 0 0 Z " fill="#141417" transform="translate(598,370)"/>
<path d="M0 0 C0.33 0 0.66 0 1 0 C1 6.27 1 12.54 1 19 C0.67 19 0.34 19 0 19 C-0.33 21.64 -0.66 24.28 -1 27 C-1.33 27 -1.66 27 -2 27 C-2.02692484 24.70839681 -2.04636124 22.41670454 -2.0625 20.125 C-2.07410156 18.84882813 -2.08570313 17.57265625 -2.09765625 16.2578125 C-2 13 -2 13 -1 11 C-0.7724985 9.12943209 -0.59037189 7.25314042 -0.4375 5.375 C-0.35371094 4.37210937 -0.26992188 3.36921875 -0.18359375 2.3359375 C-0.12300781 1.56507813 -0.06242187 0.79421875 0 0 Z " fill="#303131" transform="translate(50,303)"/>
<path d="M0 0 C0.33 0 0.66 0 1 0 C1.5297429 7.74013232 0.86688868 14.14121205 -3 21 C-3.66 21.33 -4.32 21.66 -5 22 C-5.1875 18.6875 -5.1875 18.6875 -5 15 C-4.525625 14.5565625 -4.05125 14.113125 -3.5625 13.65625 C-1.30241277 11.26055754 -1.26255718 9.03213982 -0.8125 5.8125 C-0.65394531 4.72582031 -0.49539063 3.63914063 -0.33203125 2.51953125 C-0.22246094 1.68808594 -0.11289062 0.85664063 0 0 Z " fill="#A489DB" transform="translate(599,138)"/>
<path d="M0 0 C0.33 0 0.66 0 1 0 C1.2265625 2.296875 1.2265625 2.296875 1 5 C-2.07862976 8.53182906 -5.92517434 10.68153314 -10.375 12 C-11.24125 12 -12.1075 12 -13 12 C-13.66 11.34 -14.32 10.68 -15 10 C-14.40832031 9.84144531 -13.81664062 9.68289062 -13.20703125 9.51953125 C-7.90474814 7.95393053 -4.61008638 6.39979278 -1 2 C-0.67 1.34 -0.34 0.68 0 0 Z " fill="#B99FE6" transform="translate(541,126)"/>
<path d="M0 0 C0.66 0 1.32 0 2 0 C1.80664062 0.56847656 1.61328125 1.13695312 1.4140625 1.72265625 C-0.18136423 6.45364938 -1.66900586 11.18794425 -3 16 C-3.33 16 -3.66 16 -4 16 C-4.34963286 10.17278563 -4.19639756 6.11423609 -1 1 C-0.67 0.67 -0.34 0.34 0 0 Z " fill="#222125" transform="translate(150,220)"/>
<path d="M0 0 C0.66 0.33 1.32 0.66 2 1 C-2.21608093 6.16437877 -6.24031055 10.56633898 -12 14 C-12.99 13.67 -13.98 13.34 -15 13 C-14.41992188 12.64808594 -13.83984375 12.29617187 -13.2421875 11.93359375 C-7.81438345 8.50314993 -3.94867235 5.06240045 0 0 Z " fill="#A78DD8" transform="translate(592,161)"/>
<path d="M0 0 C0.99 0 1.98 0 3 0 C3 0.66 3 1.32 3 2 C3.66 2.66 4.32 3.32 5 4 C4.113125 4.4125 3.22625 4.825 2.3125 5.25 C-0.81312366 6.90127288 -3.31905614 8.71331259 -6 11 C-4.18690997 7.22272911 -2.0926741 3.62730178 0 0 Z " fill="#B697E9" transform="translate(470,42)"/>
<path d="M0 0 C2.31 0.66 4.62 1.32 7 2 C6.67 2.99 6.34 3.98 6 5 C3.36 5.33 0.72 5.66 -2 6 C-1.34 5.01 -0.68 4.02 0 3 C0 2.01 0 1.02 0 0 Z " fill="#292A2D" transform="translate(337,401)"/>
<path d="M0 0 C0.99 0.33 1.98 0.66 3 1 C1.625 2.5 1.625 2.5 0 4 C-0.66 4 -1.32 4 -2 4 C-2.268125 4.598125 -2.53625 5.19625 -2.8125 5.8125 C-3.98493467 7.97224808 -5.19369282 9.35790256 -7 11 C-6.68232368 5.59950264 -3.80003673 3.47662935 0 0 Z " fill="#232325" transform="translate(392,214)"/>
<path d="M0 0 C4.31334508 2.23104056 5.15360179 5.49320342 6.58203125 9.84375 C7 12 7 12 6 15 C4.99539469 12.87717331 3.99644398 10.75166979 3 8.625 C2.443125 7.44164063 1.88625 6.25828125 1.3125 5.0390625 C0 2 0 2 0 0 Z " fill="#B08DDD" transform="translate(326,58)"/>
<path d="M0 0 C0.66 0.99 1.32 1.98 2 3 C1.01 3 0.02 3 -1 3 C0.32 3.66 1.64 4.32 3 5 C2.01 6.485 2.01 6.485 1 8 C0.01 8 -0.98 8 -2 8 C-2 6.35 -2 4.7 -2 3 C-2.66 2.67 -3.32 2.34 -4 2 C-2.68 1.34 -1.36 0.68 0 0 Z " fill="#BD99F3" transform="translate(427,8)"/>
<path d="M0 0 C3 1 3 1 4.1875 3.125 C5.14531259 6.51418301 5.13746202 9.49471861 5 13 C3.09610151 10.14415227 2.30537823 8.0688238 1.375 4.8125 C0.98441406 3.46091797 0.98441406 3.46091797 0.5859375 2.08203125 C0.39257812 1.39496094 0.19921875 0.70789063 0 0 Z " fill="#202123" transform="translate(356,224)"/>
<path d="M0 0 C-0.33 0.99 -0.66 1.98 -1 3 C-4.47325181 4.1577506 -7.36067448 4.06866652 -11 4 C-8.07317918 1.07317918 -4.14037627 0 0 0 Z " fill="#242326" transform="translate(579,404)"/>
<path d="M0 0 C1.46484375 1.23697917 2.9296875 2.47395833 4.39453125 3.7109375 C5.8655046 4.89201099 7.43037794 5.95358529 9 7 C8.01 7.33 7.02 7.66 6 8 C4.17578125 6.78515625 4.17578125 6.78515625 2.3125 5.0625 C1.68988281 4.49660156 1.06726563 3.93070312 0.42578125 3.34765625 C-0.04472656 2.90292969 -0.51523438 2.45820313 -1 2 C-0.67 1.34 -0.34 0.68 0 0 Z " fill="#1C1C1D" transform="translate(154,395)"/>
<path d="M0 0 C-1.34882814 4.04648443 -3.34826069 4.95502599 -7 7 C-7.99 6.67 -8.98 6.34 -10 6 C-8.71283353 4.99421411 -7.42011342 3.99553202 -6.125 3 C-5.40570313 2.443125 -4.68640625 1.88625 -3.9453125 1.3125 C-2 0 -2 0 0 0 Z " fill="#AC91DD" transform="translate(363,161)"/>
<path d="M0 0 C1.1725131 0.95117134 2.33787015 1.91117009 3.5 2.875 C4.47453125 3.67550781 4.47453125 3.67550781 5.46875 4.4921875 C5.9740625 4.98976562 6.479375 5.48734375 7 6 C7 6.66 7 7.32 7 8 C4.13792848 6.71700242 1.9754912 5.469364 0 3 C0 2.01 0 1.02 0 0 Z " fill="#444546" transform="translate(349,214)"/>
<path d="M0 0 C2.64 0.66 5.28 1.32 8 2 C7.67 2.66 7.34 3.32 7 4 C3.95613276 4.08226668 1.92824652 3.97608217 -1 3 C-0.67 2.01 -0.34 1.02 0 0 Z " fill="#B58FEE" transform="translate(340,169)"/>
<path d="M0 0 C2.37948772 0.17625835 3.70225849 0.69719773 5.37890625 2.40234375 C6.62115486 3.90649092 7.81376056 5.45129851 9 7 C4.58110387 5.64978174 2.65654657 3.73884332 0 0 Z " fill="#B69FE1" transform="translate(413,164)"/>
<path d="M0 0 C0.99 0 1.98 0 3 0 C4.32 2.31 5.64 4.62 7 7 C6.34 7.66 5.68 8.32 5 9 C3.35 6.03 1.7 3.06 0 0 Z " fill="#252628" transform="translate(589,218)"/>
<path d="M0 0 C2.97 0 5.94 0 9 0 C6.62216162 2.37783838 5.27926335 2.59009208 2 3 C1.34 2.67 0.68 2.34 0 2 C0 1.34 0 0.68 0 0 Z " fill="#202022" transform="translate(522,408)"/>
<path d="M0 0 C1.32 0.66 2.64 1.32 4 2 C2.68 3.32 1.36 4.64 0 6 C-0.66 4.68 -1.32 3.36 -2 2 C-1.34 1.34 -0.68 0.68 0 0 Z " fill="#BC9DEC" transform="translate(364,156)"/>
<path d="M0 0 C0.99 0.495 0.99 0.495 2 1 C2.40729228 3.32156597 2.74438677 5.6568787 3 8 C2.01 8 1.02 8 0 8 C0 5.36 0 2.72 0 0 Z " fill="#2A2B2D" transform="translate(381,377)"/>
</svg>
