<?xml version="1.0" encoding="UTF-8"?>
<svg version="1.1" xmlns="http://www.w3.org/2000/svg" width="512" height="512">
<path d="M0 0 C6.22880278 5.76740998 9.46223498 11.40269934 10.27734375 19.88671875 C10.55920596 28.69209412 9.18787096 37.27333699 3.625 44.359375 C0.19018198 47.82722012 -3.91515965 50.36627776 -8 53 C-20.0107064 60.79117745 -31.53261572 68.90436762 -41.328125 79.41796875 C-43 81 -43 81 -45 81 C-45.26280762 81.59232422 -45.52561523 82.18464844 -45.79638672 82.79492188 C-47.05514114 85.10102125 -48.34584542 86.49552969 -50.2578125 88.28125 C-53.8496909 91.77464441 -56.89722735 95.47750037 -59.875 99.5 C-60.3896582 100.19287109 -60.90431641 100.88574219 -61.43457031 101.59960938 C-69.99108975 113.29511267 -76.89645357 125.87548357 -83 139 C-83.46019531 139.98492432 -83.46019531 139.98492432 -83.9296875 140.98974609 C-93.91240516 162.7309533 -99.08427564 187.13393387 -100 211 C-100.04125 211.97195312 -100.0825 212.94390625 -100.125 213.9453125 C-101.04691082 258.08179323 -86.54118464 302.4626647 -59 337 C-58.35160156 337.85207031 -57.70320313 338.70414062 -57.03515625 339.58203125 C-46.51315167 353.05262061 -34.00141467 365.2023999 -20 375 C-19.13906738 375.61149902 -19.13906738 375.61149902 -18.26074219 376.23535156 C13.100124 398.40746694 49.66094298 410.46451837 88 412 C88.89589844 412.04125 89.79179687 412.0825 90.71484375 412.125 C134.48650876 413.12980149 178.8012802 398.27116173 213 371 C213.85207031 370.35160156 214.70414062 369.70320313 215.58203125 369.03515625 C229.05262061 358.51315167 241.2023999 346.00141467 251 332 C251.40766602 331.42604492 251.81533203 330.85208984 252.23535156 330.26074219 C274.35883195 298.9686667 286.61441224 262.27686189 288 224 C288.04125 222.98421875 288.0825 221.9684375 288.125 220.921875 C289.11910486 172.45926302 270.63526685 123.05606344 237.515625 87.61328125 C236.68546875 86.75089844 235.8553125 85.88851562 235 85 C234.47599609 84.44489746 233.95199219 83.88979492 233.41210938 83.31787109 C221.2700901 70.49788834 208.0433424 60.21679754 192.98828125 51.03515625 C186.60422766 46.68732367 181.62800999 40.95373854 178.6875 33.8125 C176.90986396 23.95470014 176.98473453 13.78570953 182.8515625 5.33203125 C188.74219155 -1.71382717 195.30338793 -6.48029034 204.5 -7.9375 C226.07306148 -9.18866174 246.61129794 10.30590127 261.94140625 23.5390625 C265.01497713 26.30736716 268.02097731 29.13077557 271 32 C271.9890332 32.94818604 271.9890332 32.94818604 272.99804688 33.91552734 C282.48804976 43.0616582 291.21711719 52.36236808 299 63 C299.84604192 64.12783846 300.69239736 65.25544181 301.5390625 66.3828125 C311.62060355 79.97841298 319.78142445 94.71653314 327 110 C327.29471191 110.61601074 327.58942383 111.23202148 327.89306641 111.86669922 C337.11176794 131.30557683 343.14624646 151.87530641 347 173 C347.16371094 173.83031738 347.32742188 174.66063477 347.49609375 175.51611328 C352.85251661 203.35512504 352.66694784 236.23551969 347 264 C346.80132324 265.01400879 346.60264648 266.02801758 346.39794922 267.07275391 C338.17982267 308.16338664 320.73867595 345.09783689 295 378 C294.58089355 378.53915039 294.16178711 379.07830078 293.72998047 379.63378906 C280.96107906 395.88134774 265.76409578 410.9184993 249 423 C247.91162639 423.81619833 246.82439856 424.6339266 245.73828125 425.453125 C214.53080702 448.70324208 178.21152049 463.96774075 140 471 C139.19933105 471.16081055 138.39866211 471.32162109 137.57373047 471.48730469 C109.57783464 476.96341256 75.91677188 476.84707699 48 471 C46.53771973 470.70198486 46.53771973 470.70198486 45.04589844 470.39794922 C-3.3359774 460.27732806 -47.32428269 438.3608123 -83 404 C-83.65935547 403.36787598 -84.31871094 402.73575195 -84.99804688 402.08447266 C-94.48882 392.93759947 -103.21320776 383.63554306 -111 373 C-111.82244754 371.90719886 -112.64536382 370.81475034 -113.46875 369.72265625 C-142.74761513 330.36380215 -161.80624125 280.30064393 -162.23828125 230.9453125 C-162.2480751 230.01400513 -162.25786896 229.08269775 -162.26795959 228.12316895 C-162.44070685 207.43133774 -162.28241956 187.33660429 -158 167 C-157.78569336 165.96875 -157.57138672 164.9375 -157.35058594 163.875 C-148.50820574 122.68778512 -129.52326528 83.90660012 -102 52 C-101.36578125 51.25492188 -100.7315625 50.50984375 -100.078125 49.7421875 C-88.26978404 36.24040229 -75.52236606 23.55294731 -61 13 C-60.4229834 12.57283691 -59.8459668 12.14567383 -59.25146484 11.70556641 C-20.02409588 -17.33371831 -20.02409588 -17.33371831 0 0 Z " fill="#FA7C62" transform="translate(162,38)"/>
<path d="M0 0 C0.9890332 0.94818604 0.9890332 0.94818604 1.99804688 1.91552734 C11.48804976 11.0616582 20.21711719 20.36236808 28 31 C28.84604192 32.12783846 29.69239736 33.25544181 30.5390625 34.3828125 C40.62060355 47.97841298 48.78142445 62.71653314 56 78 C56.29471191 78.61601074 56.58942383 79.23202148 56.89306641 79.86669922 C66.11176794 99.30557683 72.14624646 119.87530641 76 141 C76.16371094 141.83031738 76.32742188 142.66063477 76.49609375 143.51611328 C81.85251661 171.35512504 81.66694784 204.23551969 76 232 C75.80132324 233.01400879 75.60264648 234.02801758 75.39794922 235.07275391 C67.17982267 276.16338664 49.73867595 313.09783689 24 346 C23.58089355 346.53915039 23.16178711 347.07830078 22.72998047 347.63378906 C9.96107906 363.88134774 -5.23590422 378.9184993 -22 391 C-23.08837361 391.81619833 -24.17560144 392.6339266 -25.26171875 393.453125 C-59.6980722 419.10881389 -100.05911275 434.72425561 -142.4375 440.8125 C-143.66714478 440.99897095 -143.66714478 440.99897095 -144.92163086 441.18920898 C-155.66534121 442.56770496 -166.0043557 442 -177 442 C-177 421.87 -177 401.74 -177 381 C-170.07 380.34 -163.14 379.68 -156 379 C-152.13147244 378.47593838 -148.33264909 377.94049453 -144.5 377.25 C-143.0778418 376.99404053 -143.0778418 376.99404053 -141.62695312 376.73291016 C-111.16511283 370.99980965 -82.21206845 358.49727328 -58 339 C-56.72576172 338.02933594 -56.72576172 338.02933594 -55.42578125 337.0390625 C-41.94888341 326.52345611 -29.79784894 314.00177029 -20 300 C-19.59233398 299.42604492 -19.18466797 298.85208984 -18.76464844 298.26074219 C3.35883195 266.9686667 15.61441224 230.27686189 17 192 C17.04125 190.98421875 17.0825 189.9684375 17.125 188.921875 C18.11910486 140.45926302 -0.36473315 91.05606344 -33.484375 55.61328125 C-34.31453125 54.75089844 -35.1446875 53.88851562 -36 53 C-36.52400391 52.44489746 -37.04800781 51.88979492 -37.58789062 51.31787109 C-49.7299099 38.49788834 -62.9566576 28.21679754 -78.01171875 19.03515625 C-84.39577234 14.68732367 -89.37199001 8.95373854 -92.3125 1.8125 C-94.09013604 -8.04529986 -94.01526547 -18.21429047 -88.1484375 -26.66796875 C-82.43612267 -33.50054321 -75.95185376 -38.30476155 -67.0625 -39.9375 C-42.19364912 -41.58875167 -16.62575123 -16.01297354 0 0 Z " fill="#FE4D4D" transform="translate(433,70)"/>
<path d="M0 0 C7.95478006 4.60426129 12.00029066 10.55327388 14.79315197 19.12576592 C15.76766346 22.81108076 15.85610394 26.30030123 15.82518005 30.09434509 C15.83056559 30.90352263 15.83595113 31.71270016 15.84149987 32.54639822 C15.85569634 35.23153073 15.84869651 37.91616444 15.84155273 40.60131836 C15.84726064 42.5371388 15.85422652 44.47295589 15.86235046 46.4087677 C15.88025002 51.64845729 15.87911955 56.88797912 15.87340808 62.12769008 C15.87031174 66.50884499 15.8764136 70.88996788 15.88244683 75.27111822 C15.8964798 85.6097278 15.89494084 95.94825472 15.88354492 106.28686523 C15.87206344 116.93821517 15.88614277 127.58931332 15.9129414 138.24063009 C15.93512035 147.4001457 15.94173086 156.5595824 15.93586498 165.71912295 C15.93249966 171.18330801 15.93488244 176.64733168 15.95211601 182.11149406 C15.96761812 187.25065088 15.96359326 192.38943551 15.94481087 197.5285778 C15.94113412 199.40946381 15.94420668 201.2903776 15.95469666 203.17123795 C16.01955303 215.76611229 15.57676705 226.12435654 6.50390625 235.8046875 C-0.24948308 241.54953665 -8.05096392 243.96445561 -16.77734375 243.8359375 C-25.49738938 242.97983204 -32.85810823 239.18528591 -38.5625 232.5625 C-43.30862437 225.5557528 -44.71173545 220.05095482 -44.70967102 211.63865662 C-44.71334771 210.83445677 -44.7170244 210.03025693 -44.7208125 209.2016874 C-44.73183654 206.50351104 -44.73569104 203.80537322 -44.73950195 201.10717773 C-44.74576767 199.17372007 -44.75241456 197.24026361 -44.75941467 195.30680847 C-44.78044803 188.95324541 -44.79081771 182.59968214 -44.80078125 176.24609375 C-44.80482935 174.05715485 -44.80894629 171.86821607 -44.81313133 169.67927742 C-44.83218293 159.3929942 -44.84641294 149.10671815 -44.8547433 138.82042068 C-44.86451014 126.95685017 -44.89081546 115.09346651 -44.93124419 103.22996181 C-44.96143676 94.05441203 -44.97621524 84.87891571 -44.97952431 75.70331722 C-44.98187158 70.22614791 -44.99078984 64.74917821 -45.01598549 59.2720623 C-45.03932549 54.11494346 -45.04347556 48.95815483 -45.03322411 43.80099678 C-45.03273005 41.91407292 -45.03901196 40.02713248 -45.05278015 38.14025879 C-45.21816851 14.11927055 -45.21816851 14.11927055 -36.4921875 5.1328125 C-25.81200511 -3.55834807 -12.63227298 -5.64420708 0 0 Z " fill="#CD0101" transform="translate(270.5625,2.4375)"/>
<path d="M0 0 C0 81.18 0 162.36 0 246 C-9.59484687 244.9339059 -16.16897893 243.39107779 -22.875 236.3125 C-30.85273814 225.84716482 -30.57705864 215.47271783 -30.51757812 202.86352539 C-30.52300492 200.92917862 -30.5301307 198.99483598 -30.53881836 197.0605011 C-30.55698948 191.82901266 -30.55000951 186.59784124 -30.53730202 181.36634755 C-30.52714067 175.87821075 -30.53657652 170.39010021 -30.54284668 164.90196228 C-30.55011458 155.68630119 -30.54055851 146.47076852 -30.52148438 137.25512695 C-30.49972382 126.61910327 -30.50676463 115.98338644 -30.52879 105.34737021 C-30.54697614 96.19715194 -30.54948641 87.04702573 -30.53903532 77.89679521 C-30.53281723 72.43986927 -30.53191816 66.98308727 -30.54518127 61.52617073 C-30.55678573 56.3935475 -30.54863031 51.26131751 -30.52560425 46.1287365 C-30.52034137 44.25150071 -30.52178915 42.3742315 -30.53065491 40.49700928 C-30.63270719 16.68227354 -30.63270719 16.68227354 -21.9609375 7.5703125 C-14.87750462 1.89792203 -9.0824918 0 0 0 Z " fill="#FF4D4D" transform="translate(256,0)"/>
</svg>
