<?xml version="1.0" encoding="UTF-8"?>
<svg version="1.1" xmlns="http://www.w3.org/2000/svg" width="512" height="512">
<path d="M0 0 C5.28073816 2.7606462 8.07619529 6.76764838 9.92578125 12.31640625 C10.15255442 14.60999401 10.32943204 16.90860396 10.48141479 19.20835876 C10.55302533 20.26675306 10.55302533 20.26675306 10.62608254 21.34652907 C10.78556843 23.7176824 10.93938051 26.0891702 11.09326172 28.46069336 C11.20641025 30.15954934 11.31992426 31.858381 11.43377686 33.55718994 C11.67880217 37.22379848 11.92139093 40.89055741 12.1621666 44.55744743 C12.54490552 50.38354481 12.93405535 56.20920311 13.32424927 62.0348053 C14.29407959 76.52885889 15.25632296 91.02341506 16.21533203 105.51818848 C16.95787949 116.74078297 17.70298839 127.96319445 18.45579064 139.18510634 C18.77940017 144.01252204 19.10084081 148.8400595 19.41680527 153.6679821 C19.53109203 205.18499206 19.53109203 205.18499206 37.30078125 251.25390625 C53.41603534 263.91589161 73.55464845 264.52866901 93.30078125 264.94140625 C94.0685791 264.95975525 94.83637695 264.97810425 95.62744141 264.99700928 C166.4797543 270.87167818 166.4797543 270.87167818 233.92578125 256.31640625 C235.01890625 255.78015625 236.11203125 255.24390625 237.23828125 254.69140625 C248.26849354 244.94377679 251.09425518 229.77908141 253.03515625 215.83203125 C253.20118347 214.66835022 253.36721069 213.50466919 253.53826904 212.3057251 C255.27127891 199.62038123 256.20520697 186.90031161 257.03920364 174.12940216 C257.27636866 170.54703999 257.52894633 166.96575478 257.77905273 163.38427734 C258.95228308 146.47495264 260.04214229 129.56036187 261.11454964 112.64437866 C261.54168186 105.90970373 261.97084647 99.17517584 262.40640259 92.44104004 C262.44986655 91.76899127 262.49333051 91.0969425 262.53811157 90.40452862 C262.71425843 87.68240458 262.89054099 84.96028953 263.06729674 82.23820496 C263.59686726 74.08259629 264.11509772 65.92646135 264.61414844 57.76892602 C264.97074966 51.95500151 265.34522267 46.14233025 265.72577477 40.32992935 C265.88117605 37.91001619 266.03052928 35.48970621 266.17350197 33.06902695 C266.3719029 29.72396934 266.59174004 26.38096262 266.81665039 23.03759766 C266.8692313 22.06344784 266.92181221 21.08929802 266.97598648 20.08562851 C267.49969526 12.81019756 269.09860377 7.00567263 274.48828125 1.87890625 C279.37022369 -1.25054403 284.28933426 -1.3167048 289.92578125 -0.68359375 C294.91247132 1.80975128 298.42253599 5.30991574 300.92578125 10.31640625 C301.02603355 13.02405314 301.06500323 15.69982883 301.04841614 18.40727234 C301.04391346 19.61953398 301.04391346 19.61953398 301.03931981 20.85628575 C300.97607435 28.8794823 300.51975654 36.86035396 299.96362305 44.86254883 C299.85961885 46.42400861 299.75612992 47.98550278 299.65310669 49.54702759 C299.3754241 53.73204831 299.09027704 57.91652753 298.80335593 62.10092378 C298.50069562 66.52997498 298.20418485 70.95943896 297.9066925 75.38883972 C297.40569911 82.83365868 296.89977018 90.27812978 296.39086914 97.72241211 C295.80818965 106.24686734 295.23346986 114.77183045 294.66307896 123.2971161 C294.10835335 131.58513764 293.54763353 139.87274411 292.98441505 148.16019249 C292.74772853 151.64449316 292.51303678 155.12891881 292.28012657 158.61347389 C285.73390942 256.37636159 285.73390942 256.37636159 261.92578125 278.31640625 C236.76177435 298.8584527 204.38780183 298.63568264 173.44921875 298.6171875 C171.40285183 298.61950852 169.3564891 298.62301322 167.31012404 298.62659425 C160.891139 298.63760536 154.47221251 298.63817565 148.05322266 298.63208008 C141.50604329 298.62605674 134.95907972 298.63832903 128.41193712 298.65965015 C122.72460835 298.67746687 117.03734697 298.68323621 111.34999144 298.6800124 C107.98250579 298.67822986 104.61529419 298.68190998 101.24781418 298.69472694 C70.42135927 298.79766151 36.42431594 298.25041158 12.92578125 275.31640625 C-7.48891797 252.32571974 -9.90673009 220.49885574 -12.02734375 191.16015625 C-12.18904187 189.03026892 -12.35135718 186.90042838 -12.51422119 184.77062988 C-13.05491978 177.62067523 -13.56727572 170.46882418 -14.07421875 163.31640625 C-14.1670816 162.00917603 -14.25994446 160.7019458 -14.35562134 159.35510254 C-15.74429948 139.77549851 -17.06803673 120.19170532 -18.37076807 100.60621929 C-18.77709176 94.50537602 -19.19044734 88.40502271 -19.6051805 82.30474615 C-20.01298029 76.3020947 -20.41607666 70.29913906 -20.81560349 64.29593134 C-21.05090469 60.7613399 -21.28789379 57.22688554 -21.52971649 53.69273376 C-23.22100314 28.91894105 -23.22100314 28.91894105 -23.43847656 17.84570312 C-23.46511761 17.15021614 -23.49175865 16.45472916 -23.519207 15.73816681 C-23.54433077 10.82708365 -22.10876978 8.10581082 -19.07421875 4.31640625 C-13.29663616 -0.77336889 -7.5906975 -2.5016423 0 0 Z " fill="#000000" transform="translate(117.07421875,165.68359375)"/>
<path d="M0 0 C2.23617815 -0.00524458 4.47235409 -0.0115241 6.70852661 -0.01878357 C11.38017231 -0.02915219 16.05151274 -0.02467773 20.72314453 -0.01000977 C26.67654562 0.00716312 32.62898015 -0.01631855 38.58227348 -0.05149937 C43.19632221 -0.07357958 47.81014351 -0.07200606 52.42422867 -0.06373405 C54.61762679 -0.06292018 56.81104258 -0.06967441 59.00439072 -0.08450508 C77.01799509 -0.18764826 90.74295787 1.56781182 104.15625 14.6640625 C111.85477183 22.77756042 115.38806342 32.03086665 118.77783203 42.50195312 C121.62699638 51.0633059 126.43772038 57.71343224 134.5703125 61.87890625 C139.78847012 63.3506943 144.81268768 63.69604204 150.21899414 63.72412109 C150.91409592 63.72920181 151.60919769 63.73428253 152.32536316 63.73951721 C153.82472059 63.75016232 155.32409332 63.75880512 156.82347298 63.76563644 C159.19875827 63.7774975 161.57386758 63.79696534 163.94908142 63.8187561 C170.69882354 63.88015172 177.44854218 63.93447017 184.19848633 63.96777344 C188.33581519 63.9887301 192.47281325 64.02403062 196.60995293 64.06853104 C198.18274481 64.08267161 199.7555951 64.09140909 201.32844734 64.09458542 C203.5279924 64.09950049 205.72665922 64.12266883 207.92602539 64.14990234 C209.17589737 64.1579892 210.42576935 64.16607605 211.71351624 64.17440796 C216.5520851 64.75016392 219.73949883 66.80331388 222.7578125 70.56640625 C226.13580678 75.07039862 226.57262558 79.06470846 226.0078125 84.56640625 C224.00484582 90.2414785 220.39431071 93.87315714 215.0078125 96.56640625 C212.98631233 96.6650471 210.96148295 96.69742986 208.93758011 96.70062733 C207.63450826 96.70508517 206.33143641 96.70954301 204.98887753 96.71413594 C203.52898231 96.71404664 202.06908709 96.71385677 200.60919189 96.71357727 C199.06906566 96.71687482 197.52894028 96.72060015 195.98881602 96.72471875 C191.7407285 96.73475931 187.4926551 96.73845884 183.24455738 96.74110806 C178.66910511 96.74500503 174.0936641 96.75458377 169.51821899 96.76332092 C158.46071753 96.78310245 147.40321512 96.79315363 136.34570038 96.80204871 C131.14233917 96.80642881 125.93897899 96.81179633 120.73561859 96.81703758 C103.44501074 96.83405147 86.15440354 96.84854656 68.8637886 96.85578632 C64.37468719 96.85769631 59.88558577 96.85961663 55.39648438 96.86157227 C53.72280679 96.86229788 53.72280679 96.86229788 52.01531753 96.86303815 C33.93259193 96.87134183 15.8499324 96.89668375 -2.23276433 96.92915294 C-20.78540155 96.96219518 -39.33800516 96.98023251 -57.89067197 96.98343056 C-68.31237715 96.98559828 -78.73398597 96.99438514 -89.15566254 97.01989174 C-98.02970964 97.04156002 -106.90363699 97.04966828 -115.77770755 97.03992496 C-120.30705437 97.035369 -124.8361539 97.0373414 -129.36546707 97.0566864 C-133.51079024 97.07423878 -137.65568425 97.07338529 -141.80101147 97.05778911 C-143.30172664 97.05540092 -144.80247091 97.05979901 -146.30314144 97.07161776 C-148.34157169 97.08667904 -150.38014816 97.07470768 -152.41859055 97.06139088 C-154.11773169 97.06285609 -154.11773169 97.06285609 -155.85119891 97.0643509 C-160.86669777 96.26923791 -163.96258859 93.70731315 -167.3046875 90.00390625 C-170.25081303 85.74839159 -170.51928815 81.60740524 -169.9921875 76.56640625 C-168.24430089 71.87471061 -165.74754102 68.85234058 -161.9921875 65.56640625 C-158.53923822 64.41542316 -155.82841401 64.4206518 -152.18505859 64.39282227 C-151.49682007 64.38613525 -150.80858154 64.37944824 -150.0994873 64.37255859 C-148.60500222 64.35851577 -147.11049579 64.34661926 -145.61597824 64.33661079 C-143.24403977 64.32016282 -140.87225734 64.29691967 -138.50039673 64.27171326 C-131.75636632 64.20106963 -125.01226987 64.14105984 -118.26806641 64.08959961 C-114.14072805 64.05762939 -110.013566 64.01630245 -105.88637161 63.96940422 C-104.31966989 63.95348327 -102.75292757 63.94111653 -101.18616867 63.93249702 C-86.61147008 64.37157 -86.61147008 64.37157 -73.6796875 58.75390625 C-73.06480469 58.27308594 -72.44992188 57.79226562 -71.81640625 57.296875 C-67.29735468 53.0100659 -65.00877252 48.64765226 -62.9921875 42.81640625 C-62.47307267 41.38218932 -61.95225 39.94858935 -61.4296875 38.515625 C-61.0584375 37.48961182 -61.0584375 37.48961182 -60.6796875 36.44287109 C-55.33031533 21.84227645 -46.94087949 10.33788406 -32.75436401 3.48548889 C-22.17824794 -0.70556283 -11.20362556 -0.03208636 0 0 Z M-25.9921875 39.56640625 C-27.3775345 42.05906256 -28.29568823 44.6105998 -29.1796875 47.31640625 C-29.41365234 47.9815625 -29.64761719 48.64671875 -29.88867188 49.33203125 C-30.61143136 51.40274713 -31.30153076 53.48476296 -31.9921875 55.56640625 C-32.9821875 58.53640625 -33.9721875 61.50640625 -34.9921875 64.56640625 C6.5878125 64.56640625 48.1678125 64.56640625 91.0078125 64.56640625 C86.69346065 47.29212162 86.69346065 47.29212162 76.0703125 34.25390625 C70.85451912 32.51530846 65.5557145 32.41768563 60.10986328 32.42114258 C58.95739609 32.41610466 58.95739609 32.41610466 57.78164673 32.41096497 C55.25545613 32.4015083 52.72933217 32.39951457 50.203125 32.3984375 C48.43724542 32.39522141 46.67136609 32.39185708 44.90548706 32.38835144 C41.20863223 32.38237351 37.51180073 32.38051018 33.81494141 32.38110352 C29.09193384 32.3812051 24.36907674 32.36755082 19.64610481 32.35033131 C15.99998292 32.3391806 12.35389706 32.33718525 8.70775986 32.33771324 C6.96714637 32.33653784 5.2265318 32.33214089 3.48593521 32.32438087 C1.04536825 32.3145181 -1.3948764 32.31748354 -3.83544922 32.32348633 C-4.54531982 32.31786682 -5.25519043 32.31224731 -5.98657227 32.30645752 C-13.91820106 32.35571164 -20.37205518 33.61280733 -25.9921875 39.56640625 Z " fill="#000000" transform="translate(227.9921875,47.43359375)"/>
</svg>
