<?xml version="1.0" encoding="UTF-8"?>
<svg version="1.1" xmlns="http://www.w3.org/2000/svg" width="512" height="512">
<path d="M0 0 C10.22162006 8.07550907 19.36902085 17.64180704 28.57958984 26.82666016 C30.69590738 28.93319351 32.82269039 31.02878911 34.94970703 33.12451172 C48.41494361 46.4835067 59.59769085 59.10328182 59.75439453 78.92919922 C59.76867334 95.69569319 52.96889193 107.78918653 41.29587406 119.61485541 C40.38809509 120.51439361 39.48031611 121.41393182 38.54502869 122.34072876 C37.55404662 123.33704874 36.563934 124.33423414 35.57460696 125.33219755 C32.87856451 128.04672966 30.17035545 130.74881889 27.45980132 133.44885015 C24.52878186 136.37283834 21.6093388 139.30834839 18.68832397 142.24232483 C12.97337993 147.97884991 7.24766867 153.70450816 1.51785051 159.42617275 C-3.14246412 164.08017256 -7.79902416 168.73789803 -12.4529705 173.39826584 C-13.11684201 174.063039 -13.78071352 174.72781217 -14.46470235 175.41272997 C-15.81361398 176.76349292 -17.16251998 178.11426148 -18.51142042 179.4650356 C-31.14597281 192.11614648 -43.79311752 204.75460916 -56.44437849 217.38900809 C-67.99908922 228.92902955 -79.53908352 240.48363725 -91.07201821 252.04541798 C-102.93463724 263.93748472 -114.80649887 275.82024888 -126.68861669 287.69283426 C-128.0346018 289.03779689 -129.38057298 290.38277346 -130.72653008 291.72776413 C-131.38864577 292.38940343 -132.05076146 293.05104273 -132.73294126 293.73273171 C-137.37996163 298.37759473 -142.0209941 303.02838846 -146.6596241 307.68162918 C-152.32096028 313.36054925 -157.99113767 319.03046234 -163.67259825 324.68925168 C-166.56669792 327.57226311 -169.4567779 330.45900283 -172.3359623 333.35691643 C-188.61095711 349.72986812 -203.620896 364.55449064 -227.41357422 368.36279297 C-228.18205185 368.48793777 -228.95052948 368.61308258 -229.74229431 368.74201965 C-239.5779357 370.30258185 -249.45855499 371.52664338 -259.34448242 372.71899414 C-262.62081723 373.11672493 -265.89502432 373.52962464 -269.16943359 373.94287109 C-304.99605415 378.35638354 -304.99605415 378.35638354 -314.55810547 370.92919922 C-320.11366505 365.87099449 -324.00465751 360.21546343 -324.98071289 352.65625 C-324.96302705 338.71421975 -323.16772296 324.93680973 -321.41479492 311.12695312 C-320.95799136 307.52467252 -320.52483374 303.91998978 -320.09797382 300.31405449 C-319.75966192 297.48464303 -319.40675718 294.65718414 -319.04994774 291.83005142 C-318.80572371 289.8712733 -318.5747537 287.91085657 -318.34431458 285.95040894 C-314.2182699 254.31016174 -294.13962765 236.35911823 -272.6742326 214.8559655 C-269.83333722 212.0090444 -266.99522937 209.15934627 -264.15666199 206.31010437 C-257.32592242 199.45501861 -250.49039207 192.60472023 -243.65394488 185.75532719 C-241.72057026 183.81823095 -239.78732114 181.88100954 -237.85411525 179.9437449 C-225.8210579 167.88546774 -213.78640453 155.82878591 -201.74697208 143.77687359 C-198.96858342 140.99555586 -196.19021113 138.21422178 -193.41186523 135.43286133 C-192.72142962 134.74167966 -192.03099401 134.050498 -191.3196361 133.33837143 C-180.12014418 122.1262089 -168.93098626 110.90379138 -157.74598295 99.67717721 C-146.2378508 88.12658594 -134.72027545 76.58547835 -123.19350523 65.05348617 C-116.73149408 58.58806813 -110.27367784 52.11857932 -103.82649422 45.63837242 C-98.34095182 40.12477538 -92.84691729 34.61982018 -87.34174568 29.12581935 C-84.53690012 26.32614405 -81.73617891 23.52265773 -78.9463768 20.70798492 C-76.38671031 18.12569114 -73.81550896 15.55546824 -71.23509734 12.99390934 C-69.87514649 11.63804484 -68.52740159 10.26997043 -67.18030697 8.90133208 C-49.313636 -8.73837414 -21.64661626 -15.86391403 0 0 Z M-48.33544922 37.41357422 C-49.14679825 38.22916809 -49.95814728 39.04476196 -50.79408264 39.8850708 C-53.36842193 42.47612124 -55.93209723 45.07743684 -58.49560547 47.67919922 C-60.24556136 49.44421163 -61.99620523 51.20854221 -63.74755859 52.97216797 C-68.02573782 57.28331613 -72.2952238 61.60292701 -76.55810547 65.92919922 C-74.94187284 69.98522636 -72.05657871 72.6987545 -69.00683594 75.70751953 C-68.15783722 76.55695633 -68.15783722 76.55695633 -67.29168701 77.42355347 C-65.42425827 79.2895916 -63.54985084 81.14845018 -61.67529297 83.00732422 C-60.37734136 84.30154475 -59.07983131 85.59620827 -57.78274536 86.89129639 C-54.37095711 90.29545568 -50.95320495 93.69356555 -47.53417969 97.0904541 C-44.04504627 100.55911328 -40.5615816 104.03345505 -37.07763672 107.50732422 C-30.24333179 114.32019223 -23.40271344 121.12668342 -16.55810547 127.92919922 C-13.42083511 126.53589172 -11.27777851 124.90551276 -8.84692383 122.49267578 C-7.78078102 121.44083099 -7.78078102 121.44083099 -6.69309998 120.36773682 C-5.93570023 119.60942566 -5.17830048 118.8511145 -4.39794922 118.06982422 C-3.21852501 116.8968277 -3.21852501 116.8968277 -2.01527405 115.70013428 C-0.35439397 114.04499448 1.30387502 112.38723101 2.9597168 110.72705078 C5.48962105 108.19399113 8.03253194 105.67452499 10.57666016 103.15576172 C12.19010123 101.54459415 13.8027577 99.93264042 15.41455078 98.31982422 C16.17397476 97.56960999 16.93339874 96.81939575 17.71583557 96.04644775 C22.50291644 91.21722823 26.86637004 86.61871735 26.87939453 79.42919922 C26.90839844 78.36185547 26.90839844 78.36185547 26.93798828 77.27294922 C25.36917224 69.86121988 18.12260324 64.32088288 13.00439453 59.22607422 C11.62876343 57.84757294 11.62876343 57.84757294 10.2253418 56.44122314 C8.29196758 54.50491355 6.35505588 52.57223427 4.41552734 50.64208984 C1.93392106 48.1719092 -0.53855421 45.69281365 -3.00846863 43.21094894 C-5.37432682 40.83611936 -7.74778313 38.4689458 -10.12060547 36.10107422 C-11.00611084 35.21152039 -11.89161621 34.32196655 -12.80395508 33.40545654 C-14.04544312 32.17342499 -14.04544312 32.17342499 -15.31201172 30.91650391 C-16.03718994 30.19291687 -16.76236816 29.46932983 -17.50952148 28.72381592 C-20.78972299 25.85026792 -23.5189549 24.63149319 -27.87060547 24.55419922 C-28.58861328 24.52583984 -29.30662109 24.49748047 -30.04638672 24.46826172 C-37.80663773 25.89238243 -43.05770491 32.0301396 -48.33544922 37.41357422 Z M-104.52327442 93.63989258 C-105.13376725 94.24455321 -105.74426008 94.84921385 -106.37325269 95.47219753 C-107.04493236 96.14765653 -107.71661203 96.82311552 -108.40864563 97.51904297 C-109.12144831 98.22802011 -109.834251 98.93699724 -110.56865376 99.66745853 C-112.9740044 102.06242823 -115.3720789 104.46455558 -117.77026367 106.86669922 C-119.4861533 108.57824501 -121.20246154 110.28937121 -122.91915894 112.00010681 C-127.10892446 116.17782968 -131.29390061 120.36031217 -135.47647921 124.54522735 C-138.87773299 127.94826195 -142.28074343 131.34953014 -145.68501854 134.74954224 C-146.16899216 135.23292067 -146.65296578 135.7162991 -147.15160527 136.21432537 C-148.13476736 137.19627571 -149.11793064 138.17822486 -150.1010951 139.16017282 C-159.33271629 148.38090423 -168.55779216 157.60816271 -177.78092297 166.83738554 C-186.21271593 175.27434024 -194.65267374 183.7030722 -203.09655891 192.12792325 C-211.76617126 200.77814253 -220.43019249 209.43392557 -229.08823651 218.09572411 C-233.94919253 222.95859105 -238.81231704 227.81924033 -243.68129921 232.67407227 C-248.26417451 237.24376384 -252.83913955 241.8212791 -257.40890121 246.40408516 C-259.0860801 248.08362982 -260.76581328 249.76062831 -262.4482975 251.43485832 C-264.74808973 253.72418145 -267.03840123 256.0225979 -269.32661438 258.32348633 C-270.32409564 259.30990616 -270.32409564 259.30990616 -271.34172803 260.31625366 C-282.23785929 271.33938055 -284.70734353 282.73418273 -286.38232422 297.81201172 C-286.53345169 299.10742889 -286.68457916 300.40284607 -286.84028625 301.73751831 C-287.23784399 305.1461333 -287.624636 308.55588265 -288.0090332 311.96600342 C-288.40483613 315.45970972 -288.81103722 318.95220591 -289.21630859 322.44482422 C-290.00696445 329.27181395 -290.786229 336.10006141 -291.55810547 342.92919922 C-284.03691545 342.07910222 -276.51692343 341.21901166 -268.99829292 340.34657574 C-265.50606281 339.94165854 -262.01352258 339.54003649 -258.52001953 339.14624023 C-254.49244392 338.69208954 -250.46671448 338.22308015 -246.44091797 337.75341797 C-245.20197784 337.61578537 -243.96303772 337.47815277 -242.68655396 337.33634949 C-221.12893673 334.7811676 -210.38593692 324.20135291 -195.54199219 309.25366211 C-193.83675022 307.54757298 -192.13084551 305.84214604 -190.42433167 304.1373291 C-186.29051901 300.0042855 -182.16361614 295.86443735 -178.03976838 291.72145284 C-173.23659835 286.89674622 -168.42487065 282.08061172 -163.61263253 277.26495247 C-155.03257955 268.67835019 -146.45923327 260.08508422 -137.89013672 251.48754883 C-129.57108279 243.14091482 -121.24885179 234.79746962 -112.92236328 226.45825195 C-112.40824028 225.94334078 -111.89411728 225.42842961 -111.3644148 224.89791507 C-108.7849286 222.31451347 -106.20538019 219.73117401 -103.62580085 217.14786541 C-82.26024945 195.75126551 -60.90570925 174.34370656 -39.55810547 152.92919922 C-41.39875659 148.95290172 -43.99654319 146.20852609 -47.07763672 143.15087891 C-47.64042328 142.58458771 -48.20320984 142.01829651 -48.78305054 141.43484497 C-50.6405759 139.56853219 -52.50530329 137.70961204 -54.37060547 135.85107422 C-55.66362309 134.55670947 -56.95634369 133.26204794 -58.2487793 131.96710205 C-60.95574302 129.25719143 -63.66628758 126.55092768 -66.37939453 123.84716797 C-69.863417 120.37456251 -73.3383545 116.89302601 -76.8106842 113.40873337 C-79.47670461 110.73550211 -82.14745015 108.06703279 -84.81967163 105.40000153 C-86.10341388 104.11759674 -87.38566303 102.83369555 -88.66641235 101.5483017 C-90.45235063 99.7573085 -92.24453195 97.97281164 -94.03857422 96.18994141 C-94.57058441 95.65388275 -95.1025946 95.1178241 -95.65072632 94.56552124 C-99.43279122 90.82717512 -100.65408626 89.7770545 -104.52327442 93.63989258 Z " fill="#000000" transform="translate(388.55810546875,72.07080078125)"/>
<path d="M0 0 C0.80126942 -0.00623996 1.60253883 -0.01247993 2.42808914 -0.01890898 C5.10437985 -0.03482286 7.77975774 -0.02224132 10.45605469 -0.00964355 C12.37821991 -0.01506539 14.30038098 -0.0221884 16.22253418 -0.03088379 C21.43739519 -0.04911266 26.65193951 -0.04205133 31.86680603 -0.02936745 C37.32527518 -0.01923758 42.78371728 -0.0286331 48.2421875 -0.03491211 C57.40857815 -0.04218854 66.57483987 -0.03260088 75.74121094 -0.0135498 C86.33748838 0.00821887 96.93345796 0.0011675 107.52972794 -0.02085543 C116.6288326 -0.0390095 125.7278446 -0.04156769 134.82696152 -0.03110075 C140.26087236 -0.02486589 145.69463851 -0.02403007 151.12854004 -0.0372467 C156.23729355 -0.04880462 161.34565029 -0.04078034 166.45436096 -0.01766968 C168.32885581 -0.0123823 170.20338407 -0.01389685 172.0778656 -0.02272034 C174.63764706 -0.03365839 177.19615873 -0.01993391 179.75585938 0 C180.49691547 -0.00892289 181.23797157 -0.01784577 182.00148392 -0.02703905 C187.09247736 0.04981296 189.93868806 1.33885352 193.87792969 4.50793457 C197.50626632 8.32723629 198.18793427 11.39072463 198.37792969 16.50793457 C198.18793427 21.62514451 197.50626632 24.68863285 193.87792969 28.50793457 C189.21384908 32.26014144 185.59322139 33.08615548 179.75585938 33.01586914 C178.95458996 33.0221091 178.15332054 33.02834907 177.32777023 33.03477812 C174.65147952 33.050692 171.97610163 33.03811046 169.29980469 33.0255127 C167.37763946 33.03093453 165.4554784 33.03805754 163.5333252 33.04675293 C158.31846418 33.0649818 153.10391986 33.05792047 147.88905334 33.04523659 C142.4305842 33.03510672 136.97214209 33.04450224 131.51367188 33.05078125 C122.34728123 33.05805768 113.18101951 33.04847002 104.01464844 33.02941895 C93.418371 33.00765027 82.82240142 33.01470164 72.22613144 33.03672457 C63.12702678 33.05487864 54.02801478 33.05743683 44.92889786 33.04696989 C39.49498702 33.04073503 34.06122087 33.03989921 28.62731934 33.05311584 C23.51856582 33.06467376 18.41020908 33.05664948 13.30149841 33.03353882 C11.42700357 33.02825144 9.55247531 33.02976599 7.67799377 33.03858948 C5.11821232 33.04952753 2.55970064 33.03580306 0 33.01586914 C-0.7410561 33.02479203 -1.4821122 33.03371491 -2.24562454 33.04290819 C-7.33661798 32.96605618 -10.18282869 31.67701563 -14.12207031 28.50793457 C-17.75040695 24.68863285 -18.43207489 21.62514451 -18.62207031 16.50793457 C-18.43207489 11.39072463 -17.75040695 8.32723629 -14.12207031 4.50793457 C-9.45798971 0.7557277 -5.83736202 -0.07028634 0 0 Z " fill="#000000" transform="translate(250.1220703125,415.4920654296875)"/>
</svg>
